<svg xmlns="http://www.w3.org/2000/svg" xmlns:xlink="http://www.w3.org/1999/xlink" width="500" zoomAndPan="magnify" viewBox="0 0 375 374.999991" height="500" preserveAspectRatio="xMidYMid meet" version="1.0"><defs><clipPath id="908bbdf412"><path d="M 30 101 L 345 101 L 345 274.707031 L 30 274.707031 Z M 30 101 " clip-rule="nonzero"/></clipPath></defs><g clip-path="url(#908bbdf412)"><path fill="#100f0d" d="M 321.21875 105.503906 L 189.75 242.027344 L 53.117188 110.667969 C 47.726562 105.488281 39.15625 105.65625 33.960938 111.035156 C 28.777344 116.421875 28.945312 124.992188 34.332031 130.171875 L 180.730469 270.910156 C 183.257812 273.339844 186.621094 274.691406 190.121094 274.691406 C 190.207031 274.691406 190.296875 274.691406 190.382812 274.6875 C 193.972656 274.617188 197.390625 273.128906 199.882812 270.542969 L 340.738281 124.269531 C 345.921875 118.882812 345.753906 110.316406 340.367188 105.136719 C 334.976562 99.953125 326.40625 100.125 321.21875 105.503906 " fill-opacity="1" fill-rule="nonzero"/></g></svg>