<svg xmlns="http://www.w3.org/2000/svg" xmlns:xlink="http://www.w3.org/1999/xlink" width="500" zoomAndPan="magnify" viewBox="0 0 375 374.999991" height="500" preserveAspectRatio="xMidYMid meet" version="1.0"><defs><clipPath id="205a78b1da"><path d="M 59 21.328125 L 316.492188 21.328125 L 316.492188 353.578125 L 59 353.578125 Z M 59 21.328125 " clip-rule="nonzero"/></clipPath></defs><g clip-path="url(#205a78b1da)"><path fill="#d4a598" d="M 187.78125 21.589844 C 158.433594 21.589844 134.578125 42.183594 134.578125 67.355469 L 134.578125 102.824219 L 96.992188 102.824219 C 96.308594 102.816406 95.648438 102.921875 95.003906 103.152344 C 94.363281 103.378906 93.78125 103.707031 93.253906 104.144531 C 92.730469 104.578125 92.296875 105.089844 91.957031 105.679688 C 91.613281 106.269531 91.386719 106.902344 91.269531 107.574219 L 59.460938 332.347656 C 59.367188 333 59.304688 333.65625 59.277344 334.3125 C 59.253906 334.972656 59.261719 335.632812 59.308594 336.289062 C 59.351562 336.949219 59.433594 337.601562 59.546875 338.25 C 59.664062 338.898438 59.8125 339.542969 60 340.175781 C 60.183594 340.808594 60.402344 341.429688 60.652344 342.039062 C 60.902344 342.648438 61.1875 343.242188 61.503906 343.824219 C 61.820312 344.402344 62.164062 344.960938 62.539062 345.503906 C 62.917969 346.046875 63.320312 346.566406 63.753906 347.066406 C 64.183594 347.5625 64.640625 348.035156 65.125 348.484375 C 65.609375 348.933594 66.113281 349.355469 66.644531 349.75 C 67.171875 350.144531 67.71875 350.511719 68.289062 350.847656 C 68.855469 351.183594 69.4375 351.484375 70.039062 351.757812 C 70.640625 352.03125 71.253906 352.269531 71.878906 352.476562 C 72.507812 352.683594 73.140625 352.855469 73.789062 352.992188 C 74.433594 353.132812 75.082031 353.234375 75.738281 353.300781 C 76.394531 353.371094 77.054688 353.402344 77.710938 353.398438 L 297.851562 353.398438 C 298.511719 353.402344 299.167969 353.371094 299.824219 353.300781 C 300.480469 353.234375 301.132812 353.132812 301.777344 352.992188 C 302.421875 352.855469 303.058594 352.683594 303.683594 352.476562 C 304.308594 352.269531 304.925781 352.03125 305.523438 351.757812 C 306.125 351.484375 306.710938 351.183594 307.277344 350.847656 C 307.84375 350.511719 308.394531 350.144531 308.921875 349.75 C 309.449219 349.355469 309.957031 348.933594 310.4375 348.484375 C 310.921875 348.035156 311.378906 347.5625 311.8125 347.066406 C 312.242188 346.566406 312.648438 346.046875 313.023438 345.503906 C 313.398438 344.960938 313.746094 344.402344 314.0625 343.824219 C 314.375 343.242188 314.660156 342.648438 314.910156 342.039062 C 315.164062 341.429688 315.382812 340.808594 315.566406 340.175781 C 315.75 339.542969 315.902344 338.898438 316.015625 338.25 C 316.132812 337.601562 316.210938 336.949219 316.257812 336.289062 C 316.300781 335.632812 316.3125 334.972656 316.285156 334.3125 C 316.257812 333.65625 316.199219 333 316.101562 332.347656 L 284.066406 107.402344 C 283.949219 106.730469 283.71875 106.097656 283.378906 105.507812 C 283.039062 104.917969 282.605469 104.40625 282.082031 103.972656 C 281.554688 103.535156 280.972656 103.207031 280.328125 102.980469 C 279.6875 102.753906 279.023438 102.644531 278.34375 102.652344 L 240.988281 102.652344 L 240.988281 67.355469 C 240.988281 42.183594 217.128906 21.589844 187.78125 21.589844 Z M 145.675781 102.824219 L 145.675781 67.355469 C 145.675781 48.132812 164.554688 32.515625 187.78125 32.515625 C 211.007812 32.515625 229.886719 48.246094 229.886719 67.355469 L 229.886719 102.824219 Z M 145.675781 102.824219 " fill-opacity="1" fill-rule="nonzero"/></g></svg>