<svg xmlns="http://www.w3.org/2000/svg" xmlns:xlink="http://www.w3.org/1999/xlink" width="500" zoomAndPan="magnify" viewBox="0 0 375 374.999991" height="500" preserveAspectRatio="xMidYMid meet" version="1.0"><defs><clipPath id="e7bae47f4f"><path d="M 19.144531 52.816406 L 355.894531 52.816406 L 355.894531 143 L 19.144531 143 Z M 19.144531 52.816406 " clip-rule="nonzero"/></clipPath><clipPath id="d9e6989289"><path d="M 19.144531 232 L 355.894531 232 L 355.894531 322.066406 L 19.144531 322.066406 Z M 19.144531 232 " clip-rule="nonzero"/></clipPath><clipPath id="2136d37670"><path d="M 19.144531 142 L 355.894531 142 L 355.894531 233 L 19.144531 233 Z M 19.144531 142 " clip-rule="nonzero"/></clipPath></defs><g clip-path="url(#e7bae47f4f)"><path fill="#1f526b" d="M 344.734375 86.496094 L 141.050781 86.496094 C 140.75 85.304688 140.398438 84.125 139.996094 82.960938 C 139.59375 81.796875 139.144531 80.652344 138.648438 79.523438 C 138.15625 78.398438 137.613281 77.292969 137.027344 76.210938 C 136.4375 75.128906 135.808594 74.070312 135.132812 73.042969 C 134.460938 72.011719 133.742188 71.011719 132.988281 70.039062 C 132.230469 69.070312 131.433594 68.128906 130.597656 67.226562 C 129.765625 66.320312 128.894531 65.449219 127.988281 64.617188 C 127.082031 63.785156 126.140625 62.988281 125.167969 62.234375 C 124.199219 61.480469 123.195312 60.765625 122.164062 60.089844 C 121.132812 59.417969 120.078125 58.789062 118.992188 58.203125 C 117.910156 57.617188 116.804688 57.078125 115.675781 56.585938 C 114.550781 56.089844 113.402344 55.644531 112.238281 55.242188 C 111.074219 54.84375 109.894531 54.492188 108.699219 54.191406 C 107.507812 53.890625 106.304688 53.636719 105.089844 53.433594 C 103.875 53.234375 102.652344 53.082031 101.425781 52.980469 C 100.199219 52.878906 98.96875 52.828125 97.738281 52.828125 C 96.507812 52.828125 95.277344 52.878906 94.050781 52.980469 C 92.824219 53.082031 91.601562 53.234375 90.390625 53.433594 C 89.175781 53.636719 87.96875 53.890625 86.777344 54.191406 C 85.582031 54.492188 84.402344 54.84375 83.238281 55.242188 C 82.074219 55.644531 80.929688 56.089844 79.800781 56.585938 C 78.671875 57.078125 77.566406 57.617188 76.484375 58.203125 C 75.402344 58.789062 74.34375 59.417969 73.3125 60.089844 C 72.28125 60.765625 71.28125 61.480469 70.308594 62.234375 C 69.335938 62.988281 68.398438 63.785156 67.488281 64.617188 C 66.582031 65.449219 65.714844 66.320312 64.878906 67.226562 C 64.042969 68.128906 63.25 69.070312 62.492188 70.039062 C 61.734375 71.011719 61.019531 72.011719 60.34375 73.042969 C 59.667969 74.070312 59.039062 75.128906 58.453125 76.210938 C 57.863281 77.292969 57.324219 78.398438 56.828125 79.523438 C 56.332031 80.652344 55.882812 81.796875 55.480469 82.960938 C 55.082031 84.125 54.726562 85.304688 54.425781 86.496094 L 30.375 86.496094 C 29.640625 86.496094 28.910156 86.570312 28.1875 86.710938 C 27.464844 86.855469 26.761719 87.070312 26.078125 87.351562 C 25.398438 87.632812 24.753906 87.980469 24.140625 88.390625 C 23.527344 88.796875 22.960938 89.265625 22.4375 89.785156 C 21.917969 90.308594 21.449219 90.875 21.042969 91.488281 C 20.632812 92.101562 20.285156 92.746094 20.003906 93.429688 C 19.722656 94.109375 19.507812 94.8125 19.363281 95.535156 C 19.222656 96.257812 19.148438 96.988281 19.148438 97.722656 C 19.148438 98.460938 19.222656 99.191406 19.363281 99.914062 C 19.507812 100.636719 19.722656 101.339844 20.003906 102.019531 C 20.285156 102.703125 20.632812 103.347656 21.042969 103.960938 C 21.449219 104.574219 21.917969 105.140625 22.4375 105.664062 C 22.960938 106.183594 23.527344 106.648438 24.140625 107.058594 C 24.753906 107.46875 25.398438 107.816406 26.078125 108.097656 C 26.761719 108.378906 27.464844 108.589844 28.1875 108.734375 C 28.910156 108.878906 29.640625 108.953125 30.375 108.953125 L 54.425781 108.953125 C 54.726562 110.144531 55.082031 111.324219 55.480469 112.488281 C 55.882812 113.652344 56.332031 114.796875 56.828125 115.925781 C 57.324219 117.050781 57.863281 118.15625 58.453125 119.238281 C 59.039062 120.320312 59.667969 121.375 60.34375 122.40625 C 61.019531 123.4375 61.734375 124.4375 62.492188 125.410156 C 63.25 126.378906 64.042969 127.316406 64.878906 128.222656 C 65.714844 129.128906 66.582031 129.996094 67.488281 130.832031 C 68.398438 131.664062 69.335938 132.457031 70.308594 133.214844 C 71.28125 133.96875 72.28125 134.683594 73.3125 135.355469 C 74.34375 136.03125 75.402344 136.660156 76.484375 137.246094 C 77.566406 137.832031 78.671875 138.371094 79.800781 138.863281 C 80.929688 139.359375 82.074219 139.804688 83.238281 140.203125 C 84.402344 140.605469 85.582031 140.953125 86.777344 141.257812 C 87.96875 141.558594 89.175781 141.8125 90.390625 142.011719 C 91.601562 142.214844 92.824219 142.367188 94.050781 142.46875 C 95.277344 142.570312 96.507812 142.621094 97.738281 142.621094 C 98.96875 142.621094 100.199219 142.570312 101.425781 142.46875 C 102.652344 142.367188 103.875 142.214844 105.089844 142.011719 C 106.304688 141.8125 107.507812 141.558594 108.699219 141.257812 C 109.894531 140.953125 111.074219 140.605469 112.238281 140.203125 C 113.402344 139.804688 114.550781 139.359375 115.675781 138.863281 C 116.804688 138.371094 117.910156 137.832031 118.992188 137.246094 C 120.078125 136.660156 121.132812 136.03125 122.164062 135.355469 C 123.195312 134.683594 124.199219 133.96875 125.167969 133.214844 C 126.140625 132.457031 127.082031 131.664062 127.988281 130.832031 C 128.894531 129.996094 129.765625 129.128906 130.597656 128.222656 C 131.433594 127.316406 132.230469 126.378906 132.988281 125.410156 C 133.742188 124.4375 134.460938 123.4375 135.132812 122.40625 C 135.808594 121.375 136.4375 120.320312 137.027344 119.238281 C 137.613281 118.15625 138.15625 117.050781 138.648438 115.925781 C 139.144531 114.796875 139.59375 113.652344 139.996094 112.488281 C 140.398438 111.324219 140.75 110.144531 141.050781 108.953125 L 344.734375 108.953125 C 345.472656 108.953125 346.199219 108.878906 346.925781 108.734375 C 347.648438 108.589844 348.347656 108.378906 349.03125 108.097656 C 349.710938 107.816406 350.359375 107.46875 350.972656 107.058594 C 351.585938 106.648438 352.152344 106.183594 352.671875 105.664062 C 353.195312 105.140625 353.660156 104.574219 354.070312 103.960938 C 354.476562 103.347656 354.824219 102.703125 355.105469 102.019531 C 355.386719 101.339844 355.601562 100.636719 355.746094 99.914062 C 355.890625 99.191406 355.960938 98.460938 355.960938 97.722656 C 355.960938 96.988281 355.890625 96.257812 355.746094 95.535156 C 355.601562 94.8125 355.386719 94.109375 355.105469 93.429688 C 354.824219 92.746094 354.476562 92.101562 354.070312 91.488281 C 353.660156 90.875 353.195312 90.308594 352.671875 89.785156 C 352.152344 89.265625 351.585938 88.796875 350.972656 88.390625 C 350.359375 87.980469 349.710938 87.632812 349.03125 87.351562 C 348.347656 87.070312 347.648438 86.855469 346.925781 86.710938 C 346.199219 86.570312 345.472656 86.496094 344.734375 86.496094 Z M 97.738281 120.179688 C 97.003906 120.179688 96.269531 120.140625 95.539062 120.070312 C 94.804688 120 94.078125 119.890625 93.359375 119.746094 C 92.636719 119.601562 91.925781 119.425781 91.21875 119.210938 C 90.515625 118.996094 89.824219 118.75 89.144531 118.46875 C 88.464844 118.1875 87.800781 117.875 87.152344 117.527344 C 86.503906 117.179688 85.875 116.800781 85.265625 116.394531 C 84.652344 115.984375 84.0625 115.546875 83.492188 115.082031 C 82.925781 114.613281 82.382812 114.121094 81.859375 113.601562 C 81.339844 113.082031 80.847656 112.539062 80.382812 111.96875 C 79.914062 111.402344 79.476562 110.808594 79.070312 110.199219 C 78.660156 109.585938 78.28125 108.957031 77.9375 108.308594 C 77.589844 107.660156 77.273438 106.996094 76.992188 106.316406 C 76.710938 105.636719 76.464844 104.945312 76.25 104.242188 C 76.039062 103.539062 75.859375 102.824219 75.714844 102.105469 C 75.574219 101.382812 75.464844 100.65625 75.394531 99.925781 C 75.320312 99.191406 75.285156 98.460938 75.285156 97.722656 C 75.285156 96.988281 75.320312 96.253906 75.394531 95.523438 C 75.464844 94.792969 75.574219 94.066406 75.714844 93.34375 C 75.859375 92.621094 76.039062 91.910156 76.25 91.207031 C 76.464844 90.503906 76.710938 89.8125 76.992188 89.132812 C 77.273438 88.453125 77.589844 87.789062 77.9375 87.140625 C 78.28125 86.492188 78.660156 85.859375 79.070312 85.25 C 79.476562 84.636719 79.914062 84.046875 80.382812 83.480469 C 80.847656 82.910156 81.339844 82.367188 81.859375 81.847656 C 82.382812 81.328125 82.925781 80.832031 83.492188 80.367188 C 84.0625 79.902344 84.652344 79.460938 85.265625 79.054688 C 85.875 78.644531 86.503906 78.269531 87.152344 77.921875 C 87.800781 77.574219 88.464844 77.261719 89.144531 76.980469 C 89.824219 76.699219 90.515625 76.449219 91.21875 76.238281 C 91.925781 76.023438 92.636719 75.84375 93.359375 75.703125 C 94.078125 75.558594 94.804688 75.449219 95.539062 75.378906 C 96.269531 75.304688 97.003906 75.269531 97.738281 75.269531 C 98.472656 75.269531 99.207031 75.304688 99.941406 75.378906 C 100.671875 75.449219 101.398438 75.558594 102.121094 75.703125 C 102.839844 75.84375 103.554688 76.023438 104.257812 76.238281 C 104.960938 76.449219 105.652344 76.699219 106.332031 76.980469 C 107.011719 77.261719 107.675781 77.574219 108.324219 77.921875 C 108.972656 78.269531 109.601562 78.644531 110.214844 79.054688 C 110.824219 79.460938 111.414062 79.902344 111.984375 80.367188 C 112.550781 80.832031 113.097656 81.328125 113.617188 81.847656 C 114.136719 82.367188 114.628906 82.910156 115.097656 83.480469 C 115.5625 84.046875 116 84.636719 116.410156 85.25 C 116.816406 85.859375 117.195312 86.492188 117.542969 87.140625 C 117.886719 87.789062 118.203125 88.453125 118.484375 89.132812 C 118.765625 89.8125 119.011719 90.503906 119.226562 91.207031 C 119.441406 91.910156 119.617188 92.621094 119.761719 93.34375 C 119.90625 94.066406 120.011719 94.792969 120.085938 95.523438 C 120.15625 96.253906 120.191406 96.988281 120.191406 97.722656 C 120.191406 98.460938 120.15625 99.191406 120.085938 99.925781 C 120.011719 100.65625 119.90625 101.382812 119.761719 102.105469 C 119.617188 102.824219 119.441406 103.539062 119.226562 104.242188 C 119.011719 104.945312 118.765625 105.636719 118.484375 106.316406 C 118.203125 106.996094 117.886719 107.660156 117.542969 108.308594 C 117.195312 108.957031 116.816406 109.585938 116.410156 110.199219 C 116 110.808594 115.5625 111.402344 115.097656 111.96875 C 114.628906 112.539062 114.136719 113.082031 113.617188 113.601562 C 113.097656 114.121094 112.550781 114.613281 111.984375 115.082031 C 111.414062 115.546875 110.824219 115.984375 110.214844 116.394531 C 109.601562 116.800781 108.972656 117.179688 108.324219 117.527344 C 107.675781 117.875 107.011719 118.1875 106.332031 118.46875 C 105.652344 118.75 104.960938 118.996094 104.257812 119.210938 C 103.554688 119.425781 102.839844 119.601562 102.121094 119.746094 C 101.398438 119.890625 100.671875 120 99.941406 120.070312 C 99.207031 120.140625 98.472656 120.179688 97.738281 120.179688 Z M 97.738281 120.179688 " fill-opacity="1" fill-rule="nonzero"/></g><g clip-path="url(#d9e6989289)"><path fill="#1f526b" d="M 344.734375 266.128906 L 197.1875 266.128906 C 196.882812 264.9375 196.53125 263.757812 196.128906 262.59375 C 195.730469 261.429688 195.28125 260.285156 194.785156 259.15625 C 194.289062 258.03125 193.75 256.925781 193.160156 255.84375 C 192.574219 254.761719 191.941406 253.703125 191.269531 252.675781 C 190.59375 251.644531 189.878906 250.644531 189.121094 249.671875 C 188.363281 248.703125 187.570312 247.761719 186.734375 246.859375 C 185.898438 245.953125 185.027344 245.082031 184.121094 244.25 C 183.214844 243.417969 182.277344 242.621094 181.304688 241.867188 C 180.332031 241.113281 179.332031 240.398438 178.300781 239.722656 C 177.269531 239.050781 176.210938 238.421875 175.128906 237.835938 C 174.046875 237.25 172.941406 236.710938 171.8125 236.21875 C 170.683594 235.722656 169.539062 235.277344 168.375 234.875 C 167.207031 234.476562 166.03125 234.125 164.835938 233.824219 C 163.640625 233.523438 162.4375 233.269531 161.222656 233.066406 C 160.007812 232.867188 158.789062 232.714844 157.5625 232.613281 C 156.335938 232.511719 155.105469 232.460938 153.875 232.460938 C 152.644531 232.460938 151.414062 232.511719 150.1875 232.613281 C 148.960938 232.714844 147.738281 232.867188 146.523438 233.066406 C 145.308594 233.269531 144.105469 233.523438 142.910156 233.824219 C 141.71875 234.125 140.539062 234.476562 139.375 234.875 C 138.210938 235.277344 137.0625 235.722656 135.9375 236.21875 C 134.808594 236.710938 133.703125 237.25 132.621094 237.835938 C 131.535156 238.421875 130.480469 239.050781 129.449219 239.722656 C 128.417969 240.398438 127.414062 241.113281 126.441406 241.867188 C 125.472656 242.621094 124.53125 243.417969 123.625 244.25 C 122.71875 245.082031 121.847656 245.953125 121.015625 246.859375 C 120.179688 247.761719 119.382812 248.703125 118.625 249.671875 C 117.871094 250.644531 117.152344 251.644531 116.480469 252.675781 C 115.804688 253.703125 115.175781 254.761719 114.585938 255.84375 C 114 256.925781 113.457031 258.03125 112.960938 259.15625 C 112.46875 260.285156 112.019531 261.429688 111.617188 262.59375 C 111.214844 263.757812 110.863281 264.9375 110.558594 266.128906 L 30.375 266.128906 C 29.640625 266.128906 28.910156 266.203125 28.1875 266.34375 C 27.464844 266.488281 26.761719 266.703125 26.078125 266.984375 C 25.398438 267.265625 24.753906 267.613281 24.140625 268.023438 C 23.527344 268.429688 22.960938 268.898438 22.4375 269.417969 C 21.917969 269.941406 21.449219 270.507812 21.042969 271.121094 C 20.632812 271.734375 20.285156 272.378906 20.003906 273.0625 C 19.722656 273.742188 19.507812 274.445312 19.363281 275.167969 C 19.222656 275.890625 19.148438 276.621094 19.148438 277.355469 C 19.148438 278.09375 19.222656 278.824219 19.363281 279.546875 C 19.507812 280.269531 19.722656 280.972656 20.003906 281.652344 C 20.285156 282.335938 20.632812 282.980469 21.042969 283.59375 C 21.449219 284.207031 21.917969 284.773438 22.4375 285.296875 C 22.960938 285.816406 23.527344 286.28125 24.140625 286.691406 C 24.753906 287.101562 25.398438 287.449219 26.078125 287.730469 C 26.761719 288.011719 27.464844 288.222656 28.1875 288.367188 C 28.910156 288.511719 29.640625 288.585938 30.375 288.585938 L 110.558594 288.585938 C 110.863281 289.777344 111.214844 290.957031 111.617188 292.121094 C 112.019531 293.285156 112.46875 294.429688 112.960938 295.558594 C 113.457031 296.683594 114 297.789062 114.585938 298.871094 C 115.175781 299.953125 115.804688 301.007812 116.480469 302.039062 C 117.152344 303.070312 117.871094 304.070312 118.625 305.042969 C 119.382812 306.011719 120.179688 306.949219 121.015625 307.855469 C 121.847656 308.761719 122.71875 309.628906 123.625 310.464844 C 124.53125 311.296875 125.472656 312.089844 126.441406 312.847656 C 127.414062 313.601562 128.417969 314.316406 129.449219 314.988281 C 130.480469 315.664062 131.535156 316.292969 132.621094 316.878906 C 133.703125 317.464844 134.808594 318.003906 135.9375 318.496094 C 137.0625 318.992188 138.210938 319.4375 139.375 319.835938 C 140.539062 320.238281 141.71875 320.585938 142.910156 320.890625 C 144.105469 321.191406 145.308594 321.445312 146.523438 321.644531 C 147.738281 321.847656 148.960938 322 150.1875 322.101562 C 151.414062 322.203125 152.644531 322.253906 153.875 322.253906 C 155.105469 322.253906 156.335938 322.203125 157.5625 322.101562 C 158.789062 322 160.007812 321.847656 161.222656 321.644531 C 162.4375 321.445312 163.640625 321.191406 164.835938 320.890625 C 166.03125 320.585938 167.207031 320.238281 168.375 319.835938 C 169.539062 319.4375 170.683594 318.992188 171.8125 318.496094 C 172.941406 318.003906 174.046875 317.464844 175.128906 316.878906 C 176.210938 316.292969 177.269531 315.664062 178.300781 314.988281 C 179.332031 314.316406 180.332031 313.601562 181.304688 312.847656 C 182.277344 312.089844 183.214844 311.296875 184.121094 310.464844 C 185.027344 309.628906 185.898438 308.761719 186.734375 307.855469 C 187.570312 306.949219 188.363281 306.011719 189.121094 305.042969 C 189.878906 304.070312 190.59375 303.070312 191.269531 302.039062 C 191.941406 301.007812 192.574219 299.953125 193.160156 298.871094 C 193.75 297.789062 194.289062 296.683594 194.785156 295.558594 C 195.28125 294.429688 195.730469 293.285156 196.128906 292.121094 C 196.53125 290.957031 196.882812 289.777344 197.1875 288.585938 L 344.734375 288.585938 C 345.472656 288.585938 346.199219 288.511719 346.925781 288.367188 C 347.648438 288.222656 348.347656 288.011719 349.03125 287.730469 C 349.710938 287.449219 350.359375 287.101562 350.972656 286.691406 C 351.585938 286.28125 352.152344 285.816406 352.671875 285.296875 C 353.195312 284.773438 353.660156 284.207031 354.070312 283.59375 C 354.476562 282.980469 354.824219 282.335938 355.105469 281.652344 C 355.386719 280.972656 355.601562 280.269531 355.746094 279.546875 C 355.890625 278.824219 355.960938 278.09375 355.960938 277.355469 C 355.960938 276.621094 355.890625 275.890625 355.746094 275.167969 C 355.601562 274.445312 355.386719 273.742188 355.105469 273.0625 C 354.824219 272.378906 354.476562 271.734375 354.070312 271.121094 C 353.660156 270.507812 353.195312 269.941406 352.671875 269.417969 C 352.152344 268.898438 351.585938 268.429688 350.972656 268.023438 C 350.359375 267.613281 349.710938 267.265625 349.03125 266.984375 C 348.347656 266.703125 347.648438 266.488281 346.925781 266.34375 C 346.199219 266.203125 345.472656 266.128906 344.734375 266.128906 Z M 153.875 299.8125 C 153.136719 299.8125 152.40625 299.773438 151.671875 299.703125 C 150.941406 299.632812 150.214844 299.523438 149.492188 299.378906 C 148.773438 299.234375 148.058594 299.058594 147.355469 298.84375 C 146.652344 298.628906 145.960938 298.382812 145.28125 298.101562 C 144.601562 297.820312 143.9375 297.507812 143.289062 297.160156 C 142.640625 296.8125 142.011719 296.433594 141.398438 296.027344 C 140.789062 295.617188 140.199219 295.179688 139.628906 294.714844 C 139.0625 294.246094 138.515625 293.753906 137.996094 293.234375 C 137.476562 292.714844 136.984375 292.171875 136.515625 291.601562 C 136.050781 291.035156 135.613281 290.441406 135.203125 289.832031 C 134.796875 289.21875 134.417969 288.589844 134.070312 287.941406 C 133.722656 287.292969 133.410156 286.628906 133.128906 285.949219 C 132.847656 285.269531 132.601562 284.578125 132.386719 283.875 C 132.171875 283.171875 131.996094 282.457031 131.851562 281.738281 C 131.707031 281.015625 131.601562 280.289062 131.527344 279.558594 C 131.457031 278.824219 131.417969 278.09375 131.417969 277.355469 C 131.417969 276.621094 131.457031 275.886719 131.527344 275.15625 C 131.601562 274.425781 131.707031 273.699219 131.851562 272.976562 C 131.996094 272.253906 132.171875 271.542969 132.386719 270.839844 C 132.601562 270.136719 132.847656 269.445312 133.128906 268.765625 C 133.410156 268.085938 133.722656 267.421875 134.070312 266.773438 C 134.417969 266.125 134.796875 265.492188 135.203125 264.882812 C 135.613281 264.269531 136.050781 263.679688 136.515625 263.113281 C 136.984375 262.542969 137.476562 262 137.996094 261.480469 C 138.515625 260.960938 139.0625 260.464844 139.628906 260 C 140.199219 259.535156 140.789062 259.09375 141.398438 258.6875 C 142.011719 258.277344 142.640625 257.902344 143.289062 257.554688 C 143.9375 257.207031 144.601562 256.894531 145.28125 256.613281 C 145.960938 256.332031 146.652344 256.082031 147.355469 255.871094 C 148.058594 255.65625 148.773438 255.476562 149.492188 255.335938 C 150.214844 255.191406 150.941406 255.082031 151.671875 255.011719 C 152.40625 254.9375 153.136719 254.902344 153.875 254.902344 C 154.609375 254.902344 155.34375 254.9375 156.074219 255.011719 C 156.808594 255.082031 157.535156 255.191406 158.253906 255.335938 C 158.976562 255.476562 159.6875 255.65625 160.390625 255.871094 C 161.097656 256.082031 161.789062 256.332031 162.46875 256.613281 C 163.144531 256.894531 163.808594 257.207031 164.457031 257.554688 C 165.105469 257.902344 165.738281 258.277344 166.347656 258.6875 C 166.960938 259.09375 167.550781 259.535156 168.117188 260 C 168.6875 260.464844 169.230469 260.960938 169.75 261.480469 C 170.269531 262 170.765625 262.542969 171.230469 263.113281 C 171.699219 263.679688 172.136719 264.269531 172.542969 264.882812 C 172.953125 265.492188 173.332031 266.125 173.675781 266.773438 C 174.023438 267.421875 174.335938 268.085938 174.617188 268.765625 C 174.898438 269.445312 175.148438 270.136719 175.359375 270.839844 C 175.574219 271.542969 175.753906 272.253906 175.898438 272.976562 C 176.039062 273.699219 176.148438 274.425781 176.21875 275.15625 C 176.292969 275.886719 176.328125 276.621094 176.328125 277.355469 C 176.328125 278.09375 176.292969 278.824219 176.21875 279.558594 C 176.148438 280.289062 176.039062 281.015625 175.898438 281.738281 C 175.753906 282.457031 175.574219 283.171875 175.359375 283.875 C 175.148438 284.578125 174.898438 285.269531 174.617188 285.949219 C 174.335938 286.628906 174.023438 287.292969 173.675781 287.941406 C 173.332031 288.589844 172.953125 289.21875 172.542969 289.832031 C 172.136719 290.441406 171.699219 291.035156 171.230469 291.601562 C 170.765625 292.171875 170.269531 292.714844 169.75 293.234375 C 169.230469 293.753906 168.6875 294.246094 168.117188 294.714844 C 167.550781 295.179688 166.960938 295.617188 166.347656 296.027344 C 165.738281 296.433594 165.105469 296.8125 164.457031 297.160156 C 163.808594 297.507812 163.144531 297.820312 162.46875 298.101562 C 161.789062 298.382812 161.097656 298.628906 160.390625 298.84375 C 159.6875 299.058594 158.976562 299.234375 158.253906 299.378906 C 157.535156 299.523438 156.808594 299.632812 156.074219 299.703125 C 155.34375 299.773438 154.609375 299.8125 153.875 299.8125 Z M 153.875 299.8125 " fill-opacity="1" fill-rule="nonzero"/></g><g clip-path="url(#2136d37670)"><path fill="#1f526b" d="M 344.734375 176.3125 L 331.914062 176.3125 C 331.609375 175.121094 331.257812 173.941406 330.855469 172.777344 C 330.453125 171.613281 330.003906 170.46875 329.511719 169.339844 C 329.015625 168.214844 328.472656 167.109375 327.886719 166.027344 C 327.296875 164.945312 326.667969 163.886719 325.992188 162.859375 C 325.320312 161.828125 324.601562 160.828125 323.847656 159.855469 C 323.089844 158.886719 322.292969 157.945312 321.457031 157.042969 C 320.625 156.136719 319.753906 155.265625 318.847656 154.433594 C 317.941406 153.601562 317 152.804688 316.03125 152.050781 C 315.058594 151.296875 314.054688 150.582031 313.023438 149.90625 C 311.992188 149.234375 310.9375 148.605469 309.851562 148.019531 C 308.769531 147.433594 307.664062 146.894531 306.535156 146.402344 C 305.410156 145.90625 304.261719 145.460938 303.097656 145.058594 C 301.933594 144.660156 300.753906 144.308594 299.5625 144.007812 C 298.367188 143.707031 297.164062 143.453125 295.949219 143.25 C 294.734375 143.050781 293.511719 142.898438 292.285156 142.796875 C 291.058594 142.695312 289.828125 142.644531 288.597656 142.644531 C 287.367188 142.644531 286.136719 142.695312 284.910156 142.796875 C 283.683594 142.898438 282.464844 143.050781 281.25 143.25 C 280.035156 143.453125 278.832031 143.707031 277.636719 144.007812 C 276.441406 144.308594 275.261719 144.660156 274.097656 145.058594 C 272.933594 145.460938 271.789062 145.90625 270.660156 146.402344 C 269.53125 146.894531 268.425781 147.433594 267.34375 148.019531 C 266.261719 148.605469 265.203125 149.234375 264.171875 149.90625 C 263.140625 150.582031 262.140625 151.296875 261.167969 152.050781 C 260.195312 152.804688 259.257812 153.601562 258.351562 154.433594 C 257.445312 155.265625 256.574219 156.136719 255.738281 157.042969 C 254.902344 157.945312 254.109375 158.886719 253.351562 159.855469 C 252.59375 160.828125 251.878906 161.828125 251.203125 162.859375 C 250.53125 163.886719 249.898438 164.945312 249.3125 166.027344 C 248.722656 167.109375 248.183594 168.214844 247.6875 169.339844 C 247.191406 170.46875 246.742188 171.613281 246.34375 172.777344 C 245.941406 173.941406 245.589844 175.121094 245.285156 176.3125 L 30.375 176.3125 C 29.640625 176.3125 28.910156 176.386719 28.1875 176.527344 C 27.464844 176.671875 26.761719 176.886719 26.078125 177.167969 C 25.398438 177.449219 24.753906 177.796875 24.140625 178.207031 C 23.527344 178.613281 22.960938 179.082031 22.4375 179.601562 C 21.917969 180.125 21.449219 180.691406 21.042969 181.304688 C 20.632812 181.917969 20.285156 182.5625 20.003906 183.246094 C 19.722656 183.925781 19.507812 184.628906 19.363281 185.351562 C 19.222656 186.074219 19.148438 186.804688 19.148438 187.539062 C 19.148438 188.277344 19.222656 189.007812 19.363281 189.730469 C 19.507812 190.453125 19.722656 191.15625 20.003906 191.835938 C 20.285156 192.519531 20.632812 193.164062 21.042969 193.777344 C 21.449219 194.390625 21.917969 194.957031 22.4375 195.480469 C 22.960938 196 23.527344 196.464844 24.140625 196.875 C 24.753906 197.285156 25.398438 197.632812 26.078125 197.914062 C 26.761719 198.195312 27.464844 198.40625 28.1875 198.550781 C 28.910156 198.695312 29.640625 198.769531 30.375 198.769531 L 245.285156 198.769531 C 245.589844 199.960938 245.941406 201.140625 246.34375 202.304688 C 246.742188 203.46875 247.191406 204.613281 247.6875 205.742188 C 248.183594 206.867188 248.722656 207.972656 249.3125 209.054688 C 249.898438 210.136719 250.53125 211.191406 251.203125 212.222656 C 251.878906 213.253906 252.59375 214.253906 253.351562 215.226562 C 254.109375 216.195312 254.902344 217.132812 255.738281 218.039062 C 256.574219 218.945312 257.445312 219.8125 258.351562 220.648438 C 259.257812 221.480469 260.195312 222.273438 261.167969 223.03125 C 262.140625 223.785156 263.140625 224.5 264.171875 225.171875 C 265.203125 225.847656 266.261719 226.476562 267.34375 227.0625 C 268.425781 227.648438 269.53125 228.1875 270.660156 228.679688 C 271.789062 229.175781 272.933594 229.621094 274.097656 230.019531 C 275.261719 230.421875 276.441406 230.769531 277.636719 231.074219 C 278.832031 231.375 280.035156 231.628906 281.25 231.828125 C 282.464844 232.03125 283.683594 232.183594 284.910156 232.285156 C 286.136719 232.386719 287.367188 232.4375 288.597656 232.4375 C 289.828125 232.4375 291.058594 232.386719 292.285156 232.285156 C 293.511719 232.183594 294.734375 232.03125 295.949219 231.828125 C 297.164062 231.628906 298.367188 231.375 299.5625 231.074219 C 300.753906 230.769531 301.933594 230.421875 303.097656 230.019531 C 304.261719 229.621094 305.410156 229.175781 306.535156 228.679688 C 307.664062 228.1875 308.769531 227.648438 309.851562 227.0625 C 310.9375 226.476562 311.992188 225.847656 313.023438 225.171875 C 314.054688 224.5 315.058594 223.785156 316.03125 223.03125 C 317 222.273438 317.941406 221.480469 318.847656 220.648438 C 319.753906 219.8125 320.625 218.945312 321.457031 218.039062 C 322.292969 217.132812 323.089844 216.195312 323.847656 215.226562 C 324.601562 214.253906 325.320312 213.253906 325.992188 212.222656 C 326.667969 211.191406 327.296875 210.136719 327.886719 209.054688 C 328.472656 207.972656 329.015625 206.867188 329.511719 205.742188 C 330.003906 204.613281 330.453125 203.46875 330.855469 202.304688 C 331.257812 201.140625 331.609375 199.960938 331.914062 198.769531 L 344.734375 198.769531 C 345.472656 198.769531 346.199219 198.695312 346.925781 198.550781 C 347.648438 198.40625 348.347656 198.195312 349.03125 197.914062 C 349.710938 197.632812 350.359375 197.285156 350.972656 196.875 C 351.585938 196.464844 352.152344 196 352.671875 195.480469 C 353.195312 194.957031 353.660156 194.390625 354.070312 193.777344 C 354.476562 193.164062 354.824219 192.519531 355.105469 191.835938 C 355.386719 191.15625 355.601562 190.453125 355.746094 189.730469 C 355.890625 189.007812 355.960938 188.277344 355.960938 187.539062 C 355.960938 186.804688 355.890625 186.074219 355.746094 185.351562 C 355.601562 184.628906 355.386719 183.925781 355.105469 183.246094 C 354.824219 182.5625 354.476562 181.917969 354.070312 181.304688 C 353.660156 180.691406 353.195312 180.125 352.671875 179.601562 C 352.152344 179.082031 351.585938 178.613281 350.972656 178.207031 C 350.359375 177.796875 349.710938 177.449219 349.03125 177.167969 C 348.347656 176.886719 347.648438 176.671875 346.925781 176.527344 C 346.199219 176.386719 345.472656 176.3125 344.734375 176.3125 Z M 288.597656 209.996094 C 287.863281 209.996094 287.128906 209.957031 286.398438 209.886719 C 285.664062 209.816406 284.9375 209.707031 284.21875 209.5625 C 283.496094 209.417969 282.785156 209.242188 282.082031 209.027344 C 281.375 208.8125 280.683594 208.566406 280.003906 208.285156 C 279.328125 208.003906 278.664062 207.691406 278.015625 207.34375 C 277.367188 206.996094 276.734375 206.617188 276.125 206.210938 C 275.511719 205.800781 274.921875 205.363281 274.355469 204.898438 C 273.785156 204.429688 273.242188 203.9375 272.722656 203.417969 C 272.199219 202.898438 271.707031 202.355469 271.242188 201.785156 C 270.773438 201.21875 270.335938 200.625 269.929688 200.015625 C 269.519531 199.402344 269.140625 198.773438 268.796875 198.125 C 268.449219 197.476562 268.136719 196.8125 267.855469 196.132812 C 267.574219 195.453125 267.324219 194.761719 267.113281 194.058594 C 266.898438 193.355469 266.71875 192.640625 266.574219 191.921875 C 266.433594 191.199219 266.324219 190.472656 266.253906 189.742188 C 266.179688 189.007812 266.144531 188.277344 266.144531 187.539062 C 266.144531 186.804688 266.179688 186.070312 266.253906 185.339844 C 266.324219 184.609375 266.433594 183.882812 266.574219 183.160156 C 266.71875 182.4375 266.898438 181.726562 267.113281 181.023438 C 267.324219 180.320312 267.574219 179.628906 267.855469 178.949219 C 268.136719 178.269531 268.449219 177.605469 268.796875 176.957031 C 269.140625 176.308594 269.519531 175.675781 269.929688 175.066406 C 270.335938 174.453125 270.773438 173.863281 271.242188 173.296875 C 271.707031 172.726562 272.199219 172.183594 272.722656 171.664062 C 273.242188 171.144531 273.785156 170.648438 274.355469 170.183594 C 274.921875 169.71875 275.511719 169.277344 276.125 168.871094 C 276.734375 168.460938 277.367188 168.085938 278.015625 167.738281 C 278.664062 167.390625 279.328125 167.078125 280.003906 166.796875 C 280.683594 166.515625 281.375 166.265625 282.082031 166.054688 C 282.785156 165.839844 283.496094 165.660156 284.21875 165.519531 C 284.9375 165.375 285.664062 165.265625 286.398438 165.195312 C 287.128906 165.121094 287.863281 165.085938 288.597656 165.085938 C 289.335938 165.085938 290.066406 165.121094 290.800781 165.195312 C 291.53125 165.265625 292.257812 165.375 292.980469 165.519531 C 293.699219 165.660156 294.414062 165.839844 295.117188 166.054688 C 295.820312 166.265625 296.511719 166.515625 297.191406 166.796875 C 297.871094 167.078125 298.535156 167.390625 299.183594 167.738281 C 299.832031 168.085938 300.460938 168.460938 301.074219 168.871094 C 301.683594 169.277344 302.273438 169.71875 302.84375 170.183594 C 303.410156 170.648438 303.957031 171.144531 304.476562 171.664062 C 304.996094 172.183594 305.488281 172.726562 305.957031 173.296875 C 306.421875 173.863281 306.859375 174.453125 307.269531 175.066406 C 307.675781 175.675781 308.054688 176.308594 308.402344 176.957031 C 308.746094 177.605469 309.0625 178.269531 309.34375 178.949219 C 309.625 179.628906 309.871094 180.320312 310.085938 181.023438 C 310.300781 181.726562 310.476562 182.4375 310.621094 183.160156 C 310.765625 183.882812 310.871094 184.609375 310.945312 185.339844 C 311.015625 186.070312 311.054688 186.804688 311.050781 187.539062 C 311.054688 188.277344 311.015625 189.007812 310.945312 189.742188 C 310.871094 190.472656 310.765625 191.199219 310.621094 191.921875 C 310.476562 192.640625 310.300781 193.355469 310.085938 194.058594 C 309.871094 194.761719 309.625 195.453125 309.34375 196.132812 C 309.0625 196.8125 308.746094 197.476562 308.402344 198.125 C 308.054688 198.773438 307.675781 199.402344 307.269531 200.015625 C 306.859375 200.625 306.421875 201.21875 305.957031 201.785156 C 305.488281 202.355469 304.996094 202.898438 304.476562 203.417969 C 303.957031 203.9375 303.410156 204.429688 302.84375 204.898438 C 302.273438 205.363281 301.683594 205.800781 301.074219 206.210938 C 300.460938 206.617188 299.832031 206.996094 299.183594 207.34375 C 298.535156 207.691406 297.871094 208.003906 297.191406 208.285156 C 296.511719 208.566406 295.820312 208.8125 295.117188 209.027344 C 294.414062 209.242188 293.699219 209.417969 292.980469 209.5625 C 292.257812 209.707031 291.53125 209.816406 290.800781 209.886719 C 290.066406 209.957031 289.335938 209.996094 288.597656 209.996094 Z M 288.597656 209.996094 " fill-opacity="1" fill-rule="nonzero"/></g></svg>