<svg xmlns="http://www.w3.org/2000/svg" xmlns:xlink="http://www.w3.org/1999/xlink" width="500" zoomAndPan="magnify" viewBox="0 0 375 374.999991" height="500" preserveAspectRatio="xMidYMid meet" version="1.0"><defs><clipPath id="b9bde07bcf"><path d="M 26.960938 26.960938 L 347.960938 26.960938 L 347.960938 347.960938 L 26.960938 347.960938 Z M 26.960938 26.960938 " clip-rule="nonzero"/></clipPath></defs><g clip-path="url(#b9bde07bcf)"><path fill="#1f526b" d="M 120.96875 28.066406 C 103.894531 28.867188 92.234375 31.605469 82.042969 35.597656 C 71.484375 39.710938 62.546875 45.214844 53.65625 54.152344 C 44.746094 63.089844 39.273438 72.042969 35.203125 82.617188 C 31.257812 92.839844 28.578125 104.5 27.824219 121.589844 C 27.066406 138.695312 26.902344 144.152344 26.976562 187.738281 C 27.050781 231.308594 27.25 236.785156 28.066406 253.902344 C 28.882812 270.976562 31.605469 282.625 35.597656 292.832031 C 39.710938 303.386719 45.214844 312.308594 54.152344 321.21875 C 63.089844 330.125 72.042969 335.585938 82.617188 339.667969 C 92.824219 343.617188 104.5 346.308594 121.574219 347.050781 C 138.695312 347.804688 144.152344 347.972656 187.722656 347.878906 C 231.308594 347.804688 236.769531 347.609375 253.886719 346.792969 C 270.964844 345.976562 282.609375 343.238281 292.816406 339.261719 C 303.371094 335.132812 312.308594 329.640625 321.203125 320.703125 C 330.09375 311.765625 335.570312 302.8125 339.652344 292.242188 C 343.601562 282.035156 346.292969 270.359375 347.035156 253.300781 C 347.773438 236.179688 347.957031 230.703125 347.878906 187.132812 C 347.804688 143.5625 347.59375 138.105469 346.792969 120.984375 C 345.976562 103.894531 343.253906 92.25 339.261719 82.042969 C 335.132812 71.484375 329.640625 62.5625 320.703125 53.65625 C 311.765625 44.761719 302.8125 39.273438 292.242188 35.203125 C 282.035156 31.257812 270.359375 28.566406 253.285156 27.824219 C 236.164062 27.066406 230.6875 26.902344 187.117188 26.976562 C 143.546875 27.050781 138.089844 27.25 120.96875 28.066406 M 122.84375 318.148438 C 107.207031 317.46875 98.707031 314.867188 93.035156 312.6875 C 85.535156 309.785156 80.195312 306.304688 74.554688 300.726562 C 68.929688 295.113281 65.449219 289.777344 62.515625 282.304688 C 60.324219 276.648438 57.675781 268.164062 56.9375 252.511719 C 56.136719 235.605469 55.953125 230.523438 55.878906 187.679688 C 55.800781 144.847656 55.953125 139.765625 56.695312 122.84375 C 57.359375 107.207031 59.976562 98.707031 62.152344 93.050781 C 65.058594 85.550781 68.519531 80.210938 74.117188 74.570312 C 79.726562 68.945312 85.066406 65.464844 92.550781 62.53125 C 98.207031 60.324219 106.691406 57.691406 122.328125 56.953125 C 139.253906 56.148438 144.320312 55.984375 187.164062 55.894531 C 230.007812 55.800781 235.089844 55.953125 252.011719 56.710938 C 267.652344 57.390625 276.148438 59.976562 281.804688 62.167969 C 289.308594 65.074219 294.660156 68.519531 300.289062 74.132812 C 305.914062 79.742188 309.40625 85.066406 312.324219 92.566406 C 314.535156 98.207031 317.164062 106.707031 317.90625 122.328125 C 318.707031 139.253906 318.890625 144.335938 318.964844 187.164062 C 319.039062 230.007812 318.890625 235.089844 318.148438 252 C 317.46875 267.636719 314.867188 276.148438 312.6875 281.804688 C 309.785156 289.292969 306.320312 294.644531 300.710938 300.273438 C 295.101562 305.882812 289.777344 309.375 282.273438 312.308594 C 276.632812 314.519531 268.136719 317.148438 252.511719 317.890625 C 235.589844 318.691406 230.523438 318.875 187.664062 318.949219 C 144.832031 319.023438 139.753906 318.875 122.828125 318.132812 M 253.660156 101.65625 C 253.675781 112.289062 262.328125 120.894531 272.945312 120.863281 C 283.574219 120.847656 292.179688 112.210938 292.167969 101.582031 C 292.152344 90.949219 283.5 82.34375 272.867188 82.359375 C 262.238281 82.375 253.632812 91.023438 253.648438 101.640625 M 105.027344 187.585938 C 105.121094 233.09375 142.082031 269.90625 187.574219 269.8125 C 233.078125 269.722656 269.90625 232.777344 269.8125 187.269531 C 269.722656 141.777344 232.761719 104.953125 187.253906 105.027344 C 141.761719 105.121094 104.9375 142.082031 105.027344 187.585938 M 133.929688 187.527344 C 133.882812 157.992188 157.777344 133.988281 187.316406 133.945312 C 216.851562 133.882812 240.851562 157.777344 240.914062 187.332031 C 240.972656 216.867188 217.0625 240.867188 187.527344 240.914062 C 157.992188 240.972656 133.988281 217.0625 133.945312 187.527344 " fill-opacity="1" fill-rule="nonzero"/></g></svg>