<svg width="588" height="76" viewBox="0 0 588 76" fill="none" xmlns="http://www.w3.org/2000/svg">
<path d="M3.8147e-06 58.3586C0.97521 54.0903 1.70345 49.5813 2.17839 44.8316C2.66599 40.0693 2.91296 35.2563 2.91296 30.3927C2.91296 25.5291 2.66599 20.7288 2.17839 15.9791C1.70345 11.2168 0.97521 6.70148 3.8147e-06 2.4268H25.1527C26.5712 2.4268 28.1417 2.52813 29.8641 2.73078C31.5866 2.93343 33.29 3.30073 34.9808 3.82003C36.6842 4.34566 38.2357 5.07393 39.6415 5.99853C41.041 6.92946 42.1555 8.08838 42.9851 9.46894C43.8273 10.8368 44.2516 12.5087 44.2516 14.4846C44.2516 16.1564 43.6563 17.803 42.4785 19.4242C41.3133 21.0327 39.6985 22.502 37.6405 23.8319C35.5951 25.1491 33.2584 26.2067 30.624 26.9983C32.5998 26.9983 34.6832 27.3529 36.8806 28.0622C39.0716 28.7715 41.1233 29.8038 43.0358 31.1527C44.9418 32.4889 46.506 34.0658 47.7218 35.8896C48.9377 37.7135 49.5456 39.7147 49.5456 41.8932C49.5456 43.907 49.0453 45.8955 48.0511 47.8714C47.0696 49.8346 45.5751 51.5951 43.5677 53.1657C41.5539 54.7362 39.0083 55.9965 35.918 56.9401C32.8404 57.89 29.2372 58.3586 25.1021 58.3586H3.8147e-06ZM14.9701 28.8728V46.5288C14.9701 48.758 15.2487 50.5312 15.806 51.8484C16.3759 53.1657 17.0978 54.1473 17.959 54.7869C18.8202 55.4138 19.7131 55.8191 20.644 56.0028C21.5875 56.1928 22.4678 56.2814 23.2783 56.2814C24.8994 56.2814 26.3939 55.8445 27.7617 54.9642C29.1296 54.0903 30.3517 52.9377 31.4346 51.5191C32.5301 50.0879 33.4483 48.549 34.1956 46.9088C35.6267 43.8564 36.051 41.1522 35.4621 38.8027C34.8668 36.4596 33.5687 34.4964 31.5612 32.9259C29.5475 31.3553 27.0842 30.2281 24.1649 29.5314C21.2582 28.8412 18.1933 28.6195 14.9701 28.8728ZM25.0261 4.35199C24.3992 4.35199 23.5316 4.67497 22.4171 5.31458C21.3026 5.94154 20.1691 7.01179 19.0229 8.53168C17.8704 10.0389 16.9015 12.0971 16.1099 14.7125C15.312 17.3344 14.9321 20.6528 14.9701 24.6678V26.9983C20.2514 26.745 24.4688 25.6811 27.6098 23.8065C30.7507 21.9193 32.4035 19.1202 32.5744 15.4218C32.6061 14.3769 32.4858 13.2307 32.2198 11.9768C31.9475 10.7102 31.5106 9.50694 30.9027 8.35436C30.2947 7.20811 29.4905 6.25185 28.4963 5.4919C27.5148 4.73196 26.3559 4.35199 25.0261 4.35199Z" fill="#1A4359"/>
<path d="M50.4155 40.12C50.4155 37.0296 50.9221 34.1608 51.9353 31.5073C52.9612 28.8412 54.405 26.5044 56.2667 24.4905C58.1412 22.464 60.3449 20.8871 62.8779 19.7535C65.4109 18.6263 68.1845 18.0563 71.2115 18.0563C72.7123 18.0563 74.2637 18.2463 75.8722 18.6136C77.4933 18.9683 78.9878 19.5255 80.3556 20.2855C81.7234 21.0328 82.8443 22.0207 83.7245 23.2493C84.5984 24.4842 85.0797 26.0041 85.1683 27.8089C85.2506 29.8734 84.7757 31.7543 83.7498 33.4578C82.7176 35.1487 81.3245 36.6433 79.5704 37.9415C77.8099 39.2271 75.8975 40.3163 73.8205 41.2093C71.7434 42.0895 69.679 42.7481 67.6399 43.1851C65.6135 43.6284 63.8024 43.8437 62.2193 43.8437C62.3523 46.1426 62.8272 48.3654 63.6378 50.5059C64.4483 52.6337 65.5882 54.3753 67.0573 55.7242C68.5265 57.0604 70.3059 57.6684 72.402 57.548C73.5292 57.4657 74.2637 56.9907 74.6057 56.1295C74.9413 55.2682 74.973 54.2233 74.707 52.9884C74.4347 51.7598 73.9534 50.5566 73.2632 49.3913C72.5666 48.2134 71.7814 47.3015 70.9075 46.6555C72.5286 45.3763 74.0484 44.4517 75.4669 43.8944C76.8981 43.3244 78.2089 43.0331 79.3931 43.0331C80.9255 43.0331 82.1604 43.4574 83.0913 44.2997C84.0158 45.1293 84.5414 46.2249 84.6617 47.5928C84.7757 48.948 84.3831 50.4172 83.4712 52.0005C82.0527 54.4006 80.1086 56.2751 77.6453 57.624C75.1946 58.9539 72.611 59.6252 69.8943 59.6252C66.8357 59.6252 64.1001 59.0996 61.6874 58.0547C59.2683 57.0097 57.2293 55.5722 55.5575 53.7483C53.8857 51.9245 52.6065 49.8409 51.7327 47.4915C50.8524 45.1483 50.4155 42.6911 50.4155 40.12ZM63.2832 31.5833C62.9919 32.7486 62.7322 34.2684 62.4979 36.143C62.2763 38.0048 62.1686 39.9617 62.1686 42.0199C64.2077 41.8869 66.0568 41.1776 67.7159 39.892C69.3687 38.5938 70.7619 36.9789 71.8954 35.0537C73.0226 33.1159 73.8015 31.1653 74.2257 29.2022C74.935 25.9787 75.0236 23.6229 74.5044 22.1347C73.9788 20.6338 73.1745 19.8802 72.098 19.8802C71.1671 19.8802 70.1476 20.3551 69.0331 21.2987C67.9312 22.2487 66.8674 23.5912 65.8415 25.3264C64.8093 27.068 63.9544 29.1515 63.2832 31.5833Z" fill="#1A4359"/>
<path d="M104.574 58.3586H88.0332C88.9578 54.5082 89.6543 51.0252 90.1103 47.8967C90.5789 44.7746 90.8195 41.7602 90.8195 38.8534C90.8195 35.934 90.5789 32.9132 90.1103 29.7848C89.6543 26.6627 88.9578 23.1732 88.0332 19.3229H104.574C103.409 24.0218 102.604 28.1762 102.167 31.7859C101.724 35.383 101.623 39.0054 101.863 42.6531C101.996 39.835 102.351 37.0485 102.927 34.2937C103.516 31.5263 104.371 28.9678 105.486 26.6183C106.6 24.2752 108.05 22.3373 109.842 20.8174C111.647 19.2849 113.851 18.3603 116.454 18.0563C118.917 17.7713 120.861 18.05 122.279 18.8922C123.711 19.7218 124.641 20.7858 125.066 22.084C125.433 23.2682 125.357 24.5158 124.838 25.833C124.312 27.1503 123.356 28.3155 121.975 29.3288C120.608 30.3294 118.765 30.969 116.454 31.254C114.275 31.5073 112.584 31.14 111.388 30.1394C110.203 29.1261 109.817 27.9102 110.222 26.4917C110.438 25.8204 110.526 25.2631 110.476 24.8198C110.438 24.3828 110.254 24.1612 109.918 24.1612C109.665 24.1612 109.367 24.3068 109.032 24.5918C108.031 25.5734 107.107 27.1756 106.246 29.4048C105.384 31.6213 104.688 34.2114 104.168 37.1815C103.643 40.158 103.345 43.2801 103.282 46.5542C103.231 49.8156 103.472 53.001 104.016 56.1041C104.099 56.4778 104.194 56.8577 104.295 57.244C104.396 57.6177 104.485 57.9913 104.574 58.3586Z" fill="#1A4359"/>
<path d="M139.113 75.28C136.34 75.432 134.187 75.0837 132.654 74.2414C131.134 73.4118 130.235 72.3226 129.969 70.9737C129.697 69.6374 130.026 68.2632 130.957 66.8446C131.901 65.4261 133.452 64.1658 135.618 63.0703C137.777 61.9873 140.532 61.2971 143.875 60.9931C143.755 62.2913 143.882 63.3489 144.255 64.1595C144.642 64.9828 145.123 65.5844 145.699 65.958C146.795 66.6293 147.966 66.9713 149.22 66.9713C150.854 66.9713 152.386 66.4267 153.805 65.3501C155.236 64.2862 156.186 62.9436 156.642 61.3224C157.18 59.5492 157.402 57.643 157.3 55.5975C157.199 53.5393 156.901 51.5381 156.414 49.5939C155.939 47.6371 155.363 45.9335 154.691 44.477C154.235 47.7067 153.279 50.4299 151.829 52.659C150.392 54.8755 148.688 56.5538 146.712 57.7C144.737 58.8462 142.742 59.4859 140.735 59.6252C138.771 59.7075 136.935 59.2769 135.213 58.3333C133.49 57.3897 132.122 55.9141 131.109 53.9003C130.109 51.8928 129.697 49.3596 129.868 46.3009C129.95 44.5277 130.052 42.6785 130.172 40.7533C130.305 38.8281 130.305 36.7762 130.172 34.5977C130.052 32.4192 129.646 30.0761 128.956 27.5556C128.26 25.0414 127.12 22.2993 125.537 19.3229H142.052C142.609 21.1341 142.869 23.1353 142.837 25.3264C142.818 27.5239 142.66 29.8228 142.356 32.2166C142.064 34.5977 141.748 36.9662 141.393 39.3094C141.039 41.6589 140.766 43.907 140.583 46.0475C140.393 48.1754 140.431 50.0752 140.684 51.7471C140.887 52.9314 141.304 53.818 141.95 54.4069C142.609 54.9832 143.401 55.2682 144.331 55.2682C145.326 55.2682 146.408 54.8629 147.574 54.0523C148.752 53.2417 149.834 52.0194 150.816 50.3792C151.81 48.7453 152.576 46.6492 153.121 44.097C153.659 41.5322 153.83 38.5368 153.628 35.1044C153.457 31.7099 153.001 28.6448 152.26 25.909C151.531 23.1606 150.626 20.9631 149.549 19.3229H166.065C164.595 21.0834 163.513 23.2239 162.822 25.7571C162.145 28.2902 161.683 31.0513 161.429 34.0404C161.176 37.0169 160.986 40.0946 160.872 43.2864C160.771 46.4655 160.574 49.5686 160.289 52.6084C159.998 55.6482 159.453 58.4663 158.643 61.0691C157.186 65.7617 154.78 69.2385 151.424 71.5056C148.08 73.7665 143.977 75.0267 139.113 75.28Z" fill="#1A4359"/>
<path d="M165.071 58.3586C165.831 55.3062 166.426 51.8991 166.869 48.15C167.306 44.401 167.604 40.5126 167.756 36.4723C167.908 32.4192 167.908 28.3789 167.756 24.3385C167.604 20.2855 167.306 16.3844 166.869 12.6354C166.426 8.88632 165.831 5.48557 165.071 2.4268H181.612C180.852 5.48557 180.244 8.88632 179.788 12.6354C179.332 16.3844 179.028 20.2855 178.876 24.3385C178.724 28.3789 178.724 32.4192 178.876 36.4723C179.028 40.5126 179.332 44.3947 179.788 48.1247C180.244 51.8421 180.852 55.2555 181.612 58.3586H165.071Z" fill="#1A4359"/>
<path d="M201.517 58.3586C202.492 54.0903 203.221 49.5813 203.696 44.8316C204.183 40.0693 204.43 35.2563 204.43 30.3927C204.43 25.5291 204.183 20.7288 203.696 15.9791C203.221 11.2168 202.492 6.70148 201.517 2.4268H226.67C228.088 2.4268 229.659 2.52813 231.381 2.73078C233.104 2.93343 234.807 3.30073 236.498 3.82003C238.202 4.34566 239.753 5.07393 241.159 5.99853C242.558 6.92946 243.673 8.08838 244.502 9.46894C245.345 10.8368 245.769 12.5087 245.769 14.4846C245.769 16.1564 245.174 17.803 243.996 19.4242C242.831 21.0327 241.216 22.502 239.158 23.8319C237.112 25.1491 234.776 26.2067 232.141 26.9983C234.117 26.9983 236.2 27.3529 238.398 28.0622C240.589 28.7715 242.641 29.8038 244.553 31.1527C246.459 32.4889 248.023 34.0658 249.239 35.8896C250.455 37.7135 251.063 39.7147 251.063 41.8932C251.063 43.907 250.563 45.8955 249.568 47.8714C248.587 49.8346 247.092 51.5951 245.085 53.1657C243.071 54.7362 240.526 55.9965 237.435 56.9401C234.358 57.89 230.754 58.3586 226.619 58.3586H201.517ZM216.487 28.8728V46.5288C216.487 48.758 216.766 50.5312 217.323 51.8484C217.893 53.1657 218.615 54.1473 219.476 54.7869C220.337 55.4138 221.23 55.8191 222.161 56.0028C223.105 56.1928 223.985 56.2814 224.796 56.2814C226.417 56.2814 227.911 55.8445 229.279 54.9642C230.647 54.0903 231.869 52.9377 232.952 51.5191C234.047 50.0879 234.966 48.549 235.713 46.9088C237.144 43.8564 237.568 41.1522 236.979 38.8027C236.384 36.4596 235.086 34.4964 233.079 32.9259C231.065 31.3553 228.601 30.2281 225.682 29.5314C222.776 28.8412 219.711 28.6195 216.487 28.8728ZM226.543 4.35199C225.916 4.35199 225.049 4.67497 223.934 5.31458C222.82 5.94154 221.686 7.01179 220.54 8.53168C219.388 10.0389 218.419 12.0971 217.627 14.7125C216.829 17.3344 216.449 20.6528 216.487 24.6678V26.9983C221.769 26.745 225.986 25.6811 229.127 23.8065C232.268 21.9193 233.921 19.1202 234.092 15.4218C234.123 14.3769 234.003 13.2307 233.737 11.9768C233.465 10.7102 233.028 9.50694 232.42 8.35436C231.812 7.20811 231.008 6.25185 230.014 5.4919C229.032 4.73196 227.873 4.35199 226.543 4.35199Z" fill="#1A4359"/>
<path d="M252.414 58.3586C253.174 55.3062 253.769 51.8991 254.212 48.1501C254.649 44.401 254.947 40.5126 255.099 36.4723C255.251 32.4192 255.251 28.3789 255.099 24.3385C254.947 20.2855 254.649 16.3844 254.212 12.6354C253.769 8.88632 253.174 5.48557 252.414 2.4268H268.954C268.195 5.48557 267.587 8.88632 267.131 12.6354C266.675 16.3844 266.371 20.2855 266.219 24.3385C266.067 28.3789 266.067 32.4192 266.219 36.4723C266.371 40.5126 266.675 44.3947 267.131 48.1247C267.587 51.8421 268.195 55.2555 268.954 58.3586H252.414Z" fill="#1A4359"/>
<path d="M274.296 54.2803C273.618 52.4437 273.34 50.5755 273.46 48.682C273.593 46.7948 273.853 44.8253 274.245 42.7798C274.65 40.7216 274.942 38.5114 275.132 36.1429C275.334 33.7808 275.157 31.216 274.6 28.4422C274.055 25.6747 272.909 22.635 271.155 19.3229H287.67C288.227 21.1341 288.43 23.1353 288.278 25.3264C288.126 27.5239 287.784 29.8228 287.265 32.2166C286.739 34.5977 286.188 36.9662 285.618 39.3094C285.061 41.6589 284.618 43.907 284.301 46.0475C283.997 48.1754 283.972 50.0752 284.225 51.7471C284.428 53.1023 284.909 54.1663 285.669 54.9389C286.429 55.7178 287.303 56.1041 288.303 56.1041C289.519 56.1041 290.786 55.4455 292.103 54.1283C293.433 52.7984 294.566 50.6959 295.497 47.8207C296.441 44.952 296.998 41.1776 297.169 36.4976C297.333 31.8049 296.852 26.08 295.725 19.3229H312.266C311.335 23.1732 310.625 26.6627 310.138 29.7848C309.663 32.9132 309.429 35.934 309.429 38.8534C309.429 41.7602 309.663 44.7746 310.138 47.8967C310.625 51.0252 311.335 54.5082 312.266 58.3586H295.725C296.232 56.3511 296.662 54.4449 297.017 52.6337C297.371 50.8289 297.675 49.0873 297.929 47.4154C297.251 50.0689 296.314 52.2031 295.117 53.8243C293.933 55.4328 292.616 56.6551 291.166 57.4974C289.728 58.327 288.234 58.8779 286.682 59.1692C285.124 59.4732 283.655 59.6252 282.275 59.6252C280.514 59.6252 278.893 59.1502 277.411 58.2066C275.923 57.263 274.885 55.9521 274.296 54.2803Z" fill="#1A4359"/>
<path d="M315.209 40.12C315.209 37.0296 315.716 34.1608 316.729 31.5073C317.755 28.8412 319.199 26.5044 321.06 24.4905C322.935 22.464 325.139 20.8871 327.672 19.7535C330.205 18.6263 332.978 18.0563 336.005 18.0563C337.506 18.0563 339.057 18.2463 340.666 18.6136C342.287 18.9683 343.782 19.5255 345.149 20.2855C346.517 21.0328 347.638 22.0207 348.518 23.2493C349.392 24.4842 349.873 26.0041 349.962 27.8089C350.044 29.8734 349.569 31.7543 348.544 33.4578C347.511 35.1487 346.118 36.6433 344.364 37.9415C342.604 39.2271 340.691 40.3163 338.614 41.2093C336.537 42.0895 334.473 42.7481 332.434 43.1851C330.407 43.6284 328.596 43.8437 327.013 43.8437C327.146 46.1426 327.621 48.3654 328.432 50.5059C329.242 52.6337 330.382 54.3753 331.851 55.7242C333.32 57.0604 335.1 57.6684 337.196 57.548C338.323 57.4657 339.057 56.9907 339.399 56.1295C339.735 55.2682 339.767 54.2233 339.501 52.9884C339.228 51.7598 338.747 50.5566 338.057 49.3913C337.36 48.2134 336.575 47.3015 335.701 46.6555C337.322 45.3763 338.842 44.4517 340.261 43.8944C341.692 43.3244 343.003 43.0331 344.187 43.0331C345.719 43.0331 346.954 43.4574 347.885 44.2997C348.81 45.1293 349.335 46.2249 349.455 47.5928C349.569 48.948 349.177 50.4172 348.265 52.0004C346.846 54.4006 344.902 56.2751 342.439 57.624C339.988 58.9539 337.405 59.6252 334.688 59.6252C331.629 59.6252 328.894 59.0996 326.481 58.0547C324.062 57.0097 322.023 55.5722 320.351 53.7483C318.679 51.9245 317.4 49.8409 316.526 47.4915C315.646 45.1483 315.209 42.6911 315.209 40.12ZM328.077 31.5833C327.786 32.7486 327.526 34.2684 327.292 36.143C327.07 38.0048 326.962 39.9617 326.962 42.0199C329.001 41.8869 330.851 41.1776 332.51 39.892C334.162 38.5938 335.556 36.9789 336.689 35.0537C337.816 33.1159 338.595 31.1653 339.02 29.2022C339.729 25.9787 339.817 23.6229 339.298 22.1347C338.773 20.6338 337.968 19.8802 336.892 19.8802C335.961 19.8802 334.941 20.3551 333.827 21.2987C332.725 22.2487 331.661 23.5912 330.635 25.3264C329.603 27.068 328.748 29.1515 328.077 31.5833Z" fill="#1A4359"/>
<path d="M386.085 34.7244C383.938 33.7111 381.836 32.6156 379.778 31.4313C377.732 30.2344 375.877 28.9172 374.205 27.4796C372.533 26.0294 371.191 24.3828 370.178 22.54C369.177 20.6844 368.683 18.5819 368.683 16.2324C368.683 13.7373 369.342 11.5588 370.659 9.69693C371.976 7.8224 373.711 6.24552 375.877 4.95995C378.036 3.68071 380.436 2.73078 383.071 2.12283C385.705 1.51487 388.346 1.21089 390.999 1.21089C393.969 1.21089 396.736 1.51487 399.307 2.12283C401.891 2.73078 404.247 3.12342 406.374 3.28807C407.299 3.33873 408.204 3.3134 409.085 3.21208C409.959 3.09809 410.864 2.83211 411.795 2.4268C411.288 4.6433 410.788 7.30944 410.3 10.4315C409.826 13.56 409.465 17.2964 409.211 21.6534C407.824 17.043 406.172 13.3953 404.247 10.7102C402.322 8.02505 400.295 6.09986 398.167 4.93462C396.052 3.7567 393.994 3.16141 391.987 3.16141C390.904 3.16141 389.796 3.46539 388.669 4.07335C387.535 4.6813 386.516 5.49191 385.604 6.50517C384.704 7.50576 384.059 8.65201 383.653 9.95024C383.261 11.2548 383.254 12.6227 383.628 14.0539C384.014 15.4725 384.882 16.8657 386.237 18.2336C387.605 19.5889 389.606 20.8554 392.24 22.0333C394.298 22.9453 396.42 23.8572 398.598 24.7691C400.776 25.6684 402.879 26.6563 404.905 27.7329C406.944 28.7968 408.781 29.9811 410.402 31.2793C412.036 32.5649 413.34 34.0594 414.303 35.763C415.265 37.4539 415.746 39.3854 415.746 41.5639C415.746 44.876 414.784 47.8207 412.859 50.4046C410.934 52.9884 408.527 55.0149 405.64 56.4841C403.575 57.5354 401.289 58.3206 398.775 58.8399C396.255 59.3592 393.684 59.6252 391.05 59.6252C389.074 59.6252 387.054 59.4605 384.996 59.1439C382.95 58.8209 380.981 58.4853 379.094 58.1306C377.219 57.776 375.548 57.5607 374.079 57.472C373.198 57.3897 372.305 57.415 371.394 57.548C370.494 57.6683 369.595 57.9407 368.683 58.3586C369.171 56.1295 369.652 53.4443 370.127 50.3032C370.615 47.1621 371.014 43.4384 371.318 39.1321C372.362 42.5645 373.68 45.4649 375.269 47.8461C376.852 50.2146 378.568 52.1208 380.411 53.571C382.266 55.0085 384.109 56.0535 385.933 56.7121C387.757 57.358 389.416 57.6747 390.923 57.6747C392.728 57.6747 394.349 57.2884 395.786 56.5094C397.237 55.7368 398.408 54.6982 399.307 53.3937C400.219 52.0954 400.738 50.6705 400.878 49.1127C401.03 47.5611 400.681 45.9842 399.839 44.3757C399.01 42.7545 397.591 41.2536 395.584 39.8667C393.975 38.7901 392.303 37.8148 390.568 36.9536C388.827 36.0923 387.332 35.3513 386.085 34.7244Z" fill="#1A4359"/>
<path d="M439.624 51.8231C438.067 54.4576 436.085 56.4461 433.672 57.776C431.272 59.0932 428.941 59.7519 426.681 59.7519C424.705 59.7519 422.945 59.2579 421.412 58.2826C419.892 57.2884 418.854 55.8128 418.297 53.8496C417.752 51.8738 417.974 49.4166 418.955 46.4782C419.918 43.5081 420.557 40.7026 420.88 38.0681C421.216 35.421 421.342 32.8752 421.26 30.4434C421.14 27.2199 420.538 24.9591 419.462 23.6545C418.398 22.3563 416.967 21.5394 415.181 21.1974L415.612 19.3229C416.454 19.3229 417.543 19.2405 418.879 19.0696C420.209 18.9049 421.646 18.5819 423.185 18.107C424.718 17.6193 426.231 16.929 427.719 16.0298C429.201 15.1179 430.531 13.9463 431.696 12.5087C432.874 11.0585 433.76 9.28529 434.356 7.18911H436.23C435.724 9.25362 435.293 11.2928 434.938 13.3193C434.584 15.3458 434.305 17.347 434.102 19.3229H440.131L440.435 21.1974H433.9C433.609 24.5095 433.507 27.7962 433.596 31.0513C433.678 34.2938 433.95 37.5108 434.406 40.7026C433.305 40.8736 432.006 41.2979 430.506 41.9692C428.998 42.6278 427.517 43.4637 426.047 44.477C424.578 45.4776 423.325 46.5985 422.299 47.8461C421.285 49.081 420.703 50.3666 420.551 51.6965C420.399 53.0327 420.886 54.3753 422.02 55.7242C422.609 56.3828 423.299 56.9147 424.097 57.32C424.889 57.7253 425.68 57.928 426.478 57.928C427.27 57.928 427.985 57.738 428.631 57.3454C429.758 56.6361 430.385 55.5912 430.506 54.2043C430.639 52.8237 430.404 51.4115 429.796 49.9739C429.188 48.5237 428.289 47.3584 427.111 46.4782C428.745 45.1799 430.278 44.249 431.696 43.6917C433.127 43.1218 434.432 42.8304 435.597 42.8304C437.148 42.8304 438.383 43.2611 439.295 44.1224C440.22 44.9836 440.739 46.0982 440.84 47.4661C440.954 48.8213 440.549 50.2716 439.624 51.8231Z" fill="#1A4359"/>
<path d="M445.526 54.2803C444.848 52.4437 444.57 50.5755 444.69 48.682C444.823 46.7948 445.082 44.8253 445.475 42.7798C445.88 40.7216 446.172 38.5114 446.362 36.1429C446.564 33.7808 446.387 31.216 445.83 28.4422C445.285 25.6747 444.139 22.635 442.385 19.3229H458.9C459.457 21.1341 459.66 23.1353 459.508 25.3264C459.356 27.5239 459.014 29.8228 458.495 32.2166C457.969 34.5977 457.418 36.9662 456.848 39.3094C456.291 41.6589 455.848 43.907 455.531 46.0475C455.227 48.1754 455.202 50.0752 455.455 51.7471C455.658 53.1023 456.139 54.1663 456.899 54.9389C457.659 55.7178 458.533 56.1041 459.533 56.1041C460.749 56.1041 462.016 55.4455 463.333 54.1283C464.663 52.7984 465.796 50.6959 466.727 47.8207C467.671 44.952 468.228 41.1776 468.399 36.4976C468.563 31.8049 468.082 26.08 466.955 19.3229H483.495C482.565 23.1732 481.855 26.6627 481.368 29.7848C480.893 32.9132 480.659 35.934 480.659 38.8534C480.659 41.7602 480.893 44.7746 481.368 47.8967C481.855 51.0252 482.565 54.5082 483.495 58.3586H466.955C467.462 56.3511 467.892 54.4449 468.247 52.6337C468.601 50.8289 468.905 49.0873 469.159 47.4154C468.481 50.0689 467.544 52.2031 466.347 53.8243C465.163 55.4328 463.846 56.6551 462.396 57.4974C460.958 58.327 459.464 58.8779 457.912 59.1692C456.354 59.4732 454.885 59.6252 453.505 59.6252C451.744 59.6252 450.123 59.1502 448.641 58.2066C447.153 57.263 446.115 55.9521 445.526 54.2803Z" fill="#1A4359"/>
<path d="M497.052 59.6252C494.874 59.6252 493.082 59.1249 491.682 58.1306C490.277 57.1174 489.162 55.7875 488.339 54.1283C487.528 52.4564 486.958 50.6515 486.642 48.7073C486.338 46.7695 486.237 44.8063 486.338 42.8304C486.439 40.8546 486.654 39.1004 486.996 37.5615C487.585 35.1677 488.421 32.8119 489.504 30.494C490.6 28.1635 491.948 26.0547 493.557 24.1612C495.178 22.274 497.04 20.7794 499.155 19.6775C501.264 18.5629 503.6 18.0056 506.171 18.0056C507.419 18.0056 508.578 18.2526 509.642 18.7402C510.718 19.2152 511.529 20.0322 512.073 21.1974C511.902 17.7397 511.598 14.4086 511.161 11.2168C510.718 8.02505 510.161 5.09927 509.49 2.4268H526.03C525.27 5.48557 524.662 8.88632 524.206 12.6354C523.75 16.3844 523.446 20.2855 523.294 24.3385C523.142 28.3789 523.142 32.4192 523.294 36.4723C523.446 40.5126 523.75 44.3947 524.206 48.1247C524.662 51.8421 525.27 55.2555 526.03 58.3586H509.49C510.363 54.7109 511.041 50.6705 511.516 46.2249C509.958 50.6705 507.849 54.0143 505.183 56.2561C502.53 58.4979 499.82 59.6252 497.052 59.6252ZM507.108 21.1467C505.943 21.571 504.829 22.578 503.765 24.1612C502.714 25.7507 501.789 27.6696 500.979 29.9114C500.168 32.1596 499.516 34.5091 499.028 36.9536C498.553 39.4044 498.294 41.7602 498.243 44.021C498.205 46.2882 498.433 48.226 498.927 49.8473C499.433 51.4558 500.25 52.5071 501.384 53.0137C501.72 53.1847 502.118 53.267 502.574 53.267C503.752 53.267 504.993 52.6337 506.298 51.3671C507.596 50.0879 508.768 48.226 509.819 45.7942C510.864 43.3624 511.598 40.4113 512.023 36.9282C512.225 35.041 512.333 33.0018 512.352 30.8233C512.364 28.6448 512.213 26.3397 511.896 23.9079C511.592 22.9959 511.123 22.274 510.503 21.7294C509.876 21.1721 509.167 20.8934 508.375 20.8934C507.9 20.8934 507.476 20.9821 507.108 21.1467Z" fill="#1A4359"/>
<path d="M529.904 58.3586C530.828 54.5082 531.525 51.0252 531.981 47.8967C532.449 44.7746 532.69 41.7602 532.69 38.8534C532.69 35.934 532.449 32.9132 531.981 29.7847C531.525 26.6626 530.828 23.1732 529.904 19.3229H546.444C545.513 23.1732 544.804 26.6626 544.316 29.7847C543.842 32.9132 543.607 35.934 543.607 38.8534C543.607 41.7602 543.842 44.7746 544.316 47.8967C544.804 51.0252 545.513 54.5082 546.444 58.3586H529.904ZM538.389 13.294C536.04 13.5473 534.159 13.3193 532.741 12.61C531.322 11.8881 530.366 10.9002 529.878 9.64625C529.403 8.37968 529.397 7.07511 529.853 5.71988C530.309 4.35198 531.246 3.14874 532.665 2.09748C534.096 1.05256 536.008 0.387613 538.389 0.0963002C540.732 -0.157014 542.619 0.0899677 544.038 0.830912C545.469 1.55919 546.419 2.55345 546.875 3.82002C547.343 5.07393 547.343 6.3785 546.875 7.7464C546.419 9.10163 545.469 10.2985 544.038 11.3435C542.619 12.3947 540.732 13.0407 538.389 13.294Z" fill="#1A4359"/>
<path d="M568.633 59.6252C564.644 59.6252 561.275 58.7006 558.527 56.8641C555.791 55.0085 553.72 52.5261 552.321 49.4166C550.915 46.2945 550.218 42.7798 550.218 38.8787C550.218 34.9777 550.915 31.4693 552.321 28.3409C553.72 25.2188 555.791 22.7426 558.527 20.9187C561.275 19.0949 564.644 18.183 568.633 18.183C572.597 18.183 575.966 19.0949 578.74 20.9187C581.507 22.7426 583.603 25.2188 585.022 28.3409C586.453 31.4693 587.175 34.9777 587.175 38.8787C587.175 42.7798 586.453 46.2945 585.022 49.4166C583.603 52.5261 581.507 55.0085 578.74 56.8641C575.966 58.7006 572.597 59.6252 568.633 59.6252ZM571.825 20.5894C570.438 20.7604 569.14 21.571 567.924 23.0213C566.708 24.4588 565.632 26.3017 564.707 28.5435C563.795 30.7727 563.035 33.2172 562.427 35.8643C561.82 38.4988 561.402 41.1079 561.186 43.6917C560.984 46.2629 560.996 48.606 561.237 50.7339C561.471 52.849 561.959 54.5082 562.706 55.7241C563.466 56.9401 564.517 57.4657 565.872 57.2947C567.202 57.13 568.418 56.3321 569.52 54.9135C570.634 53.4823 571.622 51.6458 572.483 49.4166C573.345 47.1748 574.054 44.743 574.611 42.1212C575.181 39.4867 575.574 36.8776 575.776 34.2937C575.992 31.6973 575.992 29.3415 575.776 27.2263C575.574 25.0984 575.143 23.4266 574.485 22.2107C573.839 20.9947 572.952 20.4565 571.825 20.5894Z" fill="#1A4359"/>
</svg>
