<svg xmlns="http://www.w3.org/2000/svg" xmlns:xlink="http://www.w3.org/1999/xlink" width="500" zoomAndPan="magnify" viewBox="0 0 375 374.999991" height="500" preserveAspectRatio="xMidYMid meet" version="1.0"><defs><clipPath id="48689581f4"><path d="M 24.140625 70.902344 L 351 70.902344 L 351 304.152344 L 24.140625 304.152344 Z M 24.140625 70.902344 " clip-rule="nonzero"/></clipPath></defs><g clip-path="url(#48689581f4)"><path fill="#1f516a" d="M 342.570312 83.609375 C 340.9375 81.632812 339.109375 79.855469 337.089844 78.28125 C 335.066406 76.707031 332.894531 75.371094 330.578125 74.269531 C 328.261719 73.171875 325.851562 72.339844 323.351562 71.773438 C 320.851562 71.203125 318.320312 70.914062 315.753906 70.902344 L 59.242188 70.902344 C 58.097656 70.902344 56.957031 70.957031 55.816406 71.070312 C 54.675781 71.183594 53.542969 71.351562 52.421875 71.574219 C 51.296875 71.796875 50.1875 72.074219 49.089844 72.40625 C 47.992188 72.742188 46.917969 73.125 45.859375 73.5625 C 44.800781 74.003906 43.765625 74.492188 42.753906 75.03125 C 41.746094 75.570312 40.761719 76.160156 39.8125 76.796875 C 38.859375 77.433594 37.9375 78.113281 37.054688 78.839844 C 36.167969 79.566406 35.320312 80.335938 34.511719 81.148438 C 33.699219 81.957031 32.933594 82.804688 32.207031 83.691406 C 31.476562 84.574219 30.796875 85.496094 30.160156 86.449219 C 29.523438 87.398438 28.9375 88.382812 28.394531 89.390625 C 27.855469 90.402344 27.367188 91.4375 26.929688 92.496094 C 26.488281 93.554688 26.105469 94.628906 25.769531 95.726562 C 25.4375 96.824219 25.160156 97.933594 24.9375 99.054688 C 24.714844 100.179688 24.546875 101.3125 24.433594 102.453125 C 24.320312 103.59375 24.265625 104.734375 24.265625 105.878906 L 24.265625 269.113281 C 24.265625 270.261719 24.320312 271.402344 24.433594 272.542969 C 24.546875 273.683594 24.714844 274.816406 24.9375 275.9375 C 25.160156 277.0625 25.4375 278.171875 25.769531 279.269531 C 26.105469 280.363281 26.488281 281.441406 26.929688 282.5 C 27.367188 283.558594 27.855469 284.59375 28.394531 285.601562 C 28.9375 286.613281 29.523438 287.59375 30.160156 288.546875 C 30.796875 289.5 31.476562 290.417969 32.207031 291.304688 C 32.933594 292.191406 33.699219 293.039062 34.511719 293.847656 C 35.320312 294.65625 36.167969 295.425781 37.054688 296.152344 C 37.9375 296.878906 38.859375 297.5625 39.8125 298.199219 C 40.761719 298.835938 41.746094 299.421875 42.753906 299.960938 C 43.765625 300.503906 44.800781 300.992188 45.859375 301.429688 C 46.917969 301.867188 47.992188 302.253906 49.089844 302.585938 C 50.1875 302.917969 51.296875 303.199219 52.421875 303.421875 C 53.542969 303.644531 54.675781 303.8125 55.816406 303.925781 C 56.957031 304.035156 58.097656 304.09375 59.242188 304.09375 L 315.753906 304.09375 C 316.898438 304.09375 318.042969 304.035156 319.183594 303.925781 C 320.324219 303.8125 321.453125 303.644531 322.578125 303.421875 C 323.703125 303.199219 324.8125 302.917969 325.910156 302.585938 C 327.003906 302.253906 328.082031 301.867188 329.140625 301.429688 C 330.199219 300.992188 331.234375 300.503906 332.242188 299.960938 C 333.253906 299.421875 334.234375 298.835938 335.1875 298.199219 C 336.140625 297.5625 337.058594 296.878906 337.945312 296.152344 C 338.832031 295.425781 339.679688 294.65625 340.488281 293.847656 C 341.296875 293.039062 342.066406 292.191406 342.792969 291.304688 C 343.519531 290.417969 344.203125 289.5 344.839844 288.546875 C 345.476562 287.59375 346.0625 286.613281 346.601562 285.601562 C 347.144531 284.59375 347.632812 283.558594 348.070312 282.5 C 348.507812 281.441406 348.894531 280.363281 349.226562 279.269531 C 349.558594 278.171875 349.835938 277.0625 350.0625 275.9375 C 350.285156 274.816406 350.453125 273.683594 350.566406 272.542969 C 350.675781 271.402344 350.734375 270.261719 350.734375 269.113281 L 350.734375 105.878906 C 350.722656 103.859375 350.539062 101.851562 350.179688 99.863281 C 349.820312 97.875 349.292969 95.929688 348.597656 94.03125 C 347.902344 92.132812 347.046875 90.308594 346.035156 88.558594 C 345.023438 86.808594 343.871094 85.160156 342.570312 83.609375 Z M 305.609375 94.222656 L 187.5 173.390625 L 70.203125 94.222656 Z M 315.753906 280.773438 L 59.242188 280.773438 C 58.476562 280.773438 57.71875 280.699219 56.96875 280.550781 C 56.21875 280.402344 55.488281 280.179688 54.78125 279.886719 C 54.074219 279.59375 53.402344 279.234375 52.765625 278.808594 C 52.128906 278.382812 51.539062 277.898438 51 277.359375 C 50.457031 276.816406 49.976562 276.230469 49.550781 275.59375 C 49.125 274.957031 48.765625 274.285156 48.472656 273.578125 C 48.179688 272.867188 47.957031 272.140625 47.808594 271.390625 C 47.660156 270.636719 47.585938 269.878906 47.585938 269.113281 L 47.585938 107.046875 L 181.4375 197.175781 C 183.269531 198.410156 185.289062 199.070312 187.5 199.15625 C 189.878906 199.164062 192.054688 198.5 194.027344 197.175781 L 327.414062 107.628906 L 327.414062 269.113281 C 327.414062 269.878906 327.339844 270.636719 327.191406 271.390625 C 327.039062 272.140625 326.820312 272.867188 326.527344 273.578125 C 326.234375 274.285156 325.875 274.957031 325.449219 275.59375 C 325.023438 276.230469 324.539062 276.816406 324 277.359375 C 323.457031 277.898438 322.867188 278.382812 322.230469 278.808594 C 321.59375 279.234375 320.921875 279.59375 320.214844 279.886719 C 319.507812 280.179688 318.78125 280.402344 318.027344 280.550781 C 317.277344 280.699219 316.519531 280.773438 315.753906 280.773438 Z M 315.753906 280.773438 " fill-opacity="1" fill-rule="nonzero"/></g></svg>