<svg xmlns="http://www.w3.org/2000/svg" xmlns:xlink="http://www.w3.org/1999/xlink" width="500" zoomAndPan="magnify" viewBox="0 0 375 374.999991" height="500" preserveAspectRatio="xMidYMid meet" version="1.0"><defs><clipPath id="c0cfc848eb"><path d="M 32 27.097656 L 348 27.097656 L 348 343 L 32 343 Z M 32 27.097656 " clip-rule="nonzero"/></clipPath></defs><g clip-path="url(#c0cfc848eb)"><path fill="#1a4359" d="M 284.679688 232.585938 C 276.1875 227.734375 265.5 229.167969 258.578125 236.082031 L 233.972656 260.6875 C 229.816406 264.84375 223.476562 265.859375 218.21875 263.214844 C 189.0625 248.558594 157.105469 217.992188 157.105469 217.992188 C 157.105469 217.992188 126.539062 186.039062 111.882812 156.878906 C 109.238281 151.621094 110.253906 145.289062 114.410156 141.125 L 139.019531 116.519531 C 145.9375 109.601562 147.363281 98.917969 142.511719 90.417969 L 113.019531 38.78125 C 108.667969 31.15625 100.144531 26.90625 91.433594 28.023438 L 76.359375 29.945312 C 67.484375 31.078125 59.625 36.035156 54.660156 43.484375 C 43.558594 60.136719 27.007812 92.332031 35 127.613281 C 46.617188 178.890625 83.449219 228.1875 115.175781 259.914062 C 146.902344 291.640625 196.199219 328.476562 247.476562 340.089844 C 282.757812 348.085938 314.953125 331.53125 331.605469 320.429688 C 339.054688 315.464844 344.011719 307.605469 345.144531 298.730469 L 347.066406 283.65625 C 348.175781 274.945312 343.925781 266.429688 336.308594 262.074219 Z M 284.679688 232.585938 " fill-opacity="1" fill-rule="nonzero"/></g></svg>