<svg xmlns="http://www.w3.org/2000/svg" xmlns:xlink="http://www.w3.org/1999/xlink" width="500" zoomAndPan="magnify" viewBox="0 0 375 374.999991" height="500" preserveAspectRatio="xMidYMid meet" version="1.0"><defs><clipPath id="b1f265e1c8"><path d="M 26.503906 26.503906 L 348.253906 26.503906 L 348.253906 348.253906 L 26.503906 348.253906 Z M 26.503906 26.503906 " clip-rule="nonzero"/></clipPath></defs><g clip-path="url(#b1f265e1c8)"><path fill="#1f526b" d="M 348.445312 187.511719 C 348.445312 195.84375 347.808594 204.035156 346.59375 212.035156 C 346.246094 214.386719 345.835938 216.722656 345.347656 219.042969 C 345.257812 219.527344 345.167969 220 345.0625 220.46875 C 344.300781 224.234375 343.390625 227.933594 342.34375 231.59375 C 342.328125 231.605469 342.328125 231.621094 342.328125 231.652344 C 341.617188 234.171875 340.84375 236.675781 339.992188 239.148438 C 339.566406 240.421875 339.113281 241.683594 338.671875 242.925781 C 337.777344 245.371094 336.820312 247.78125 335.804688 250.179688 C 311.375 307.960938 254.1875 348.476562 187.484375 348.476562 C 169.5625 348.476562 154.675781 345.851562 139.59375 341.222656 C 150.261719 325.53125 156.890625 309.234375 161.324219 291.9375 L 169.5625 258.527344 C 179.636719 271.210938 194.113281 278.25 210.621094 278.25 C 252.257812 278.25 290.890625 237.207031 290.890625 182.476562 C 290.890625 127.742188 251.257812 84.089844 188.074219 84.089844 C 124.890625 84.089844 85.058594 126.742188 85.058594 180.261719 C 85.058594 211.246094 100.355469 233.988281 116.453125 233.988281 C 121.691406 233.988281 125.105469 232.972656 128.320312 227.539062 C 118.457031 217.085938 113.433594 201.792969 113.433594 185.296875 C 113.433594 144.449219 142.007812 115.074219 187.074219 115.074219 C 227.511719 115.074219 254.882812 141.824219 254.882812 183.6875 C 254.882812 221.304688 234.960938 250.285156 206.996094 250.285156 C 191.304688 250.285156 179.03125 241.226562 179.03125 225.128906 C 179.03125 221.5 179.636719 217.285156 181.035156 212.851562 L 188.074219 189.714844 C 190.09375 183.28125 191.09375 177.648438 191.09375 172.613281 C 191.09375 156.726562 182.445312 148.472656 170.578125 148.472656 C 153.476562 148.472656 142.613281 164.570312 142.613281 187.101562 C 142.613281 196.753906 144.617188 206.417969 147.242188 214.871094 L 131.144531 284.289062 C 127.121094 301.195312 125.710938 318.6875 127.714844 337.003906 C 85.699219 320.175781 52.742188 286.429688 36.867188 244.460938 C 36.867188 244.445312 36.855469 244.445312 36.855469 244.429688 C 36.503906 243.503906 36.15625 242.5625 35.820312 241.636719 C 35.140625 239.753906 34.503906 237.859375 33.910156 235.945312 C 33.289062 234.035156 32.726562 232.09375 32.210938 230.152344 C 31.953125 229.179688 31.695312 228.207031 31.4375 227.238281 C 30.953125 225.28125 30.480469 223.308594 30.054688 221.320312 C 29.859375 220.363281 29.660156 219.394531 29.464844 218.421875 L 29.417969 218.148438 C 29.238281 217.222656 29.070312 216.28125 28.902344 215.324219 C 28.539062 213.355469 28.234375 211.367188 27.976562 209.363281 C 27.976562 209.316406 27.960938 209.273438 27.960938 209.242188 C 27.824219 208.285156 27.703125 207.34375 27.597656 206.390625 C 27.492188 205.476562 27.402344 204.566406 27.308594 203.640625 C 27.21875 202.914062 27.15625 202.1875 27.113281 201.457031 C 27.007812 200.335938 26.914062 199.210938 26.855469 198.074219 C 26.808594 197.542969 26.777344 197.011719 26.761719 196.480469 C 26.71875 195.917969 26.6875 195.359375 26.671875 194.796875 C 26.640625 194.234375 26.613281 193.65625 26.613281 193.097656 C 26.582031 192.351562 26.550781 191.609375 26.535156 190.867188 C 26.519531 189.742188 26.503906 188.636719 26.503906 187.511719 C 26.503906 180.5625 26.945312 173.71875 27.796875 167.011719 C 37.902344 87.835938 105.542969 26.613281 187.484375 26.613281 C 269.421875 26.613281 337.050781 87.835938 347.15625 167.011719 C 348.003906 173.71875 348.445312 180.5625 348.445312 187.511719 Z M 348.445312 187.511719 " fill-opacity="1" fill-rule="nonzero"/><path fill="#1f526b" d="M 348.445312 187.511719 C 348.445312 195.84375 347.808594 204.035156 346.59375 212.035156 C 346.230469 214.386719 345.820312 216.722656 345.347656 219.042969 C 345.257812 219.527344 345.167969 220 345.0625 220.46875 C 344.285156 224.234375 343.375 227.933594 342.34375 231.59375 C 342.328125 231.605469 342.328125 231.621094 342.328125 231.652344 C 341.601562 234.171875 340.828125 236.675781 339.992188 239.148438 C 339.566406 240.421875 339.113281 241.683594 338.671875 242.925781 C 337.761719 245.371094 336.804688 247.78125 335.804688 250.179688 C 311.375 307.960938 254.1875 348.476562 187.484375 348.476562 C 169.5625 348.476562 154.675781 345.851562 139.59375 341.222656 C 150.261719 325.53125 156.890625 309.234375 161.324219 291.9375 L 169.5625 258.527344 C 179.636719 271.210938 194.113281 278.25 210.621094 278.25 C 252.257812 278.25 290.890625 237.207031 290.890625 182.476562 C 290.890625 127.742188 251.257812 84.089844 188.074219 84.089844 C 124.890625 84.089844 85.058594 126.742188 85.058594 180.261719 C 85.058594 211.246094 100.355469 233.988281 116.453125 233.988281 C 121.691406 233.988281 125.105469 232.972656 128.320312 227.539062 C 118.457031 217.085938 113.433594 201.792969 113.433594 185.296875 C 113.433594 144.449219 142.007812 115.074219 187.074219 115.074219 C 227.511719 115.074219 254.882812 141.824219 254.882812 183.6875 C 254.882812 221.304688 234.960938 250.285156 206.996094 250.285156 C 191.304688 250.285156 179.03125 241.226562 179.03125 225.128906 C 179.03125 221.5 179.636719 217.285156 181.035156 212.851562 L 188.074219 189.714844 C 190.09375 183.28125 191.09375 177.648438 191.09375 172.613281 C 191.09375 156.726562 182.445312 148.472656 170.578125 148.472656 C 153.476562 148.472656 142.613281 164.570312 142.613281 187.101562 C 142.613281 196.753906 144.617188 206.417969 147.242188 214.871094 L 131.144531 284.289062 C 127.121094 301.195312 125.710938 318.6875 127.714844 337.003906 C 85.699219 320.175781 52.742188 286.429688 36.867188 244.460938 C 36.867188 244.445312 36.855469 244.445312 36.855469 244.429688 C 36.503906 243.503906 36.15625 242.5625 35.820312 241.636719 C 35.15625 239.753906 34.515625 237.859375 33.910156 235.945312 C 33.320312 234.035156 32.742188 232.09375 32.210938 230.152344 C 31.953125 229.179688 31.695312 228.207031 31.4375 227.238281 C 30.953125 225.28125 30.480469 223.308594 30.054688 221.320312 C 29.859375 220.363281 29.660156 219.394531 29.464844 218.421875 L 29.417969 218.148438 C 29.238281 217.222656 29.070312 216.28125 28.902344 215.324219 C 28.554688 213.355469 28.25 211.367188 27.976562 209.363281 C 27.976562 209.316406 27.960938 209.273438 27.960938 209.242188 C 27.824219 208.285156 27.703125 207.34375 27.597656 206.390625 C 27.492188 205.476562 27.402344 204.566406 27.308594 203.640625 C 27.21875 202.914062 27.15625 202.1875 27.113281 201.457031 C 27.007812 200.335938 26.914062 199.210938 26.855469 198.074219 C 26.808594 197.542969 26.777344 197.011719 26.761719 196.480469 C 26.71875 195.917969 26.6875 195.359375 26.671875 194.796875 C 26.640625 194.234375 26.613281 193.65625 26.613281 193.097656 C 26.582031 192.351562 26.550781 191.609375 26.535156 190.867188 C 26.519531 189.742188 26.503906 188.636719 26.503906 187.511719 C 26.503906 180.5625 26.945312 173.71875 27.796875 167.011719 C 37.871094 87.761719 105.5 26.535156 187.484375 26.535156 C 269.464844 26.535156 337.078125 87.761719 347.15625 167.011719 C 348.003906 173.71875 348.445312 180.5625 348.445312 187.511719 Z M 348.445312 187.511719 " fill-opacity="1" fill-rule="nonzero"/></g></svg>