<svg xmlns="http://www.w3.org/2000/svg" xmlns:xlink="http://www.w3.org/1999/xlink" width="500" zoomAndPan="magnify" viewBox="0 0 375 374.999991" height="500" preserveAspectRatio="xMidYMid meet" version="1.0"><defs><clipPath id="c329d65b25"><path d="M 31.816406 103 L 177.316406 103 L 177.316406 247.871094 L 31.816406 247.871094 Z M 31.816406 103 " clip-rule="nonzero"/></clipPath><clipPath id="955cea5c6d"><path d="M 76 101.621094 L 85 101.621094 L 85 111 L 76 111 Z M 76 101.621094 " clip-rule="nonzero"/></clipPath><clipPath id="cafc031eea"><path d="M 52.398438 248 L 343.398438 248 L 343.398438 273 L 52.398438 273 Z M 52.398438 248 " clip-rule="nonzero"/></clipPath></defs><g clip-path="url(#c329d65b25)"><path fill="#1a4359" d="M 176.019531 228.519531 L 119.8125 178.449219 C 118.398438 177.1875 116.199219 177.289062 114.804688 178.683594 L 114.300781 179.1875 L 106.839844 171.726562 C 109.644531 168.363281 111.890625 164.621094 113.542969 160.550781 C 115.601562 155.46875 116.648438 150.101562 116.648438 144.59375 C 116.648438 143.054688 116.566406 141.523438 116.402344 140.007812 C 116.191406 138.054688 114.535156 136.578125 112.570312 136.578125 L 112.519531 136.578125 C 110.21875 136.578125 108.445312 138.574219 108.6875 140.863281 C 109.769531 150.9375 106.457031 161.402344 98.75 169.109375 C 85.230469 182.628906 63.234375 182.628906 49.71875 169.109375 C 36.199219 155.589844 36.199219 133.597656 49.71875 120.078125 C 54.433594 115.359375 60.179688 112.289062 66.242188 110.863281 C 67.988281 110.453125 69.226562 108.902344 69.226562 107.109375 L 69.226562 107.058594 C 69.226562 104.578125 66.917969 102.734375 64.503906 103.300781 C 62.386719 103.796875 60.308594 104.460938 58.273438 105.285156 C 53.011719 107.421875 48.289062 110.554688 44.242188 114.601562 C 40.195312 118.648438 37.0625 123.371094 34.925781 128.636719 C 32.863281 133.71875 31.820312 139.085938 31.820312 144.59375 C 31.820312 150.101562 32.863281 155.472656 34.925781 160.554688 C 37.0625 165.816406 40.195312 170.539062 44.242188 174.585938 C 48.289062 178.632812 53.011719 181.769531 58.273438 183.902344 C 63.359375 185.964844 68.726562 187.007812 74.234375 187.007812 C 79.742188 187.007812 85.109375 185.964844 90.191406 183.902344 C 94.261719 182.253906 98.003906 180.003906 101.363281 177.199219 L 108.824219 184.660156 L 108.324219 185.164062 C 106.929688 186.558594 106.824219 188.757812 108.085938 190.171875 L 158.160156 246.382812 C 159.523438 247.914062 161.941406 247.933594 163.449219 246.425781 L 176.066406 233.808594 C 177.574219 232.300781 177.554688 229.882812 176.019531 228.519531 Z M 176.019531 228.519531 " fill-opacity="1" fill-rule="nonzero"/></g><path fill="#1a4359" d="M 105.882812 117.125 L 101.449219 118.289062 C 96.921875 119.472656 93.488281 123.171875 92.640625 127.773438 L 91.863281 131.980469 L 91.085938 127.769531 C 90.234375 123.167969 86.804688 119.472656 82.277344 118.289062 L 77.84375 117.125 L 82.285156 115.988281 C 86.808594 114.832031 90.257812 111.167969 91.140625 106.585938 L 91.863281 102.847656 L 92.582031 106.582031 C 93.464844 111.167969 96.917969 114.832031 101.441406 115.988281 Z M 105.882812 117.125 " fill-opacity="1" fill-rule="nonzero"/><path fill="#1a4359" d="M 110.324219 126.753906 L 108.957031 127.109375 C 107.558594 127.476562 106.496094 128.617188 106.234375 130.039062 L 105.996094 131.339844 L 105.757812 130.039062 C 105.492188 128.617188 104.433594 127.476562 103.035156 127.113281 L 101.667969 126.753906 L 103.039062 126.402344 C 104.433594 126.042969 105.5 124.914062 105.773438 123.5 L 105.996094 122.34375 L 106.21875 123.496094 C 106.492188 124.914062 107.554688 126.042969 108.953125 126.402344 Z M 110.324219 126.753906 " fill-opacity="1" fill-rule="nonzero"/><path fill="#1a4359" d="M 115.730469 110.007812 L 115.367188 110.101562 C 115 110.195312 114.722656 110.496094 114.652344 110.871094 L 114.589844 111.210938 L 114.527344 110.871094 C 114.457031 110.496094 114.179688 110.199219 113.8125 110.101562 L 113.453125 110.007812 L 113.8125 109.914062 C 114.179688 109.820312 114.460938 109.523438 114.53125 109.152344 L 114.589844 108.847656 L 114.648438 109.152344 C 114.722656 109.523438 115 109.820312 115.367188 109.914062 Z M 115.730469 110.007812 " fill-opacity="1" fill-rule="nonzero"/><path fill="#1a4359" d="M 112.628906 113.375 L 112.113281 113.511719 C 111.582031 113.648438 111.179688 114.082031 111.082031 114.617188 L 110.992188 115.109375 L 110.898438 114.617188 C 110.800781 114.082031 110.398438 113.648438 109.871094 113.511719 L 109.351562 113.375 L 109.871094 113.242188 C 110.398438 113.105469 110.804688 112.679688 110.90625 112.140625 L 110.992188 111.707031 L 111.074219 112.140625 C 111.179688 112.679688 111.582031 113.105469 112.109375 113.242188 Z M 112.628906 113.375 " fill-opacity="1" fill-rule="nonzero"/><path fill="#1a4359" d="M 117.285156 119.34375 L 116.511719 119.546875 C 115.726562 119.753906 115.128906 120.394531 114.980469 121.195312 L 114.84375 121.929688 L 114.707031 121.195312 C 114.558594 120.394531 113.960938 119.753906 113.175781 119.546875 L 112.402344 119.34375 L 113.175781 119.144531 C 113.964844 118.941406 114.5625 118.304688 114.71875 117.507812 L 114.84375 116.855469 L 114.96875 117.507812 C 115.125 118.304688 115.722656 118.941406 116.511719 119.144531 Z M 117.285156 119.34375 " fill-opacity="1" fill-rule="nonzero"/><path fill="#1a4359" d="M 80.601562 133.484375 L 80.960938 133.390625 C 81.328125 133.292969 81.609375 132.992188 81.675781 132.621094 L 81.738281 132.277344 L 81.804688 132.621094 C 81.871094 132.992188 82.152344 133.292969 82.519531 133.390625 L 82.878906 133.484375 L 82.519531 133.574219 C 82.152344 133.667969 81.871094 133.96875 81.796875 134.339844 L 81.738281 134.640625 L 81.679688 134.339844 C 81.609375 133.96875 81.328125 133.667969 80.960938 133.574219 Z M 80.601562 133.484375 " fill-opacity="1" fill-rule="nonzero"/><path fill="#1a4359" d="M 83.699219 130.117188 L 84.21875 129.980469 C 84.75 129.839844 85.148438 129.410156 85.25 128.871094 L 85.339844 128.378906 L 85.429688 128.871094 C 85.53125 129.410156 85.929688 129.84375 86.460938 129.980469 L 86.980469 130.117188 L 86.460938 130.25 C 85.929688 130.382812 85.527344 130.8125 85.425781 131.347656 L 85.339844 131.785156 L 85.253906 131.347656 C 85.152344 130.8125 84.75 130.382812 84.21875 130.25 Z M 83.699219 130.117188 " fill-opacity="1" fill-rule="nonzero"/><path fill="#1a4359" d="M 79.046875 124.148438 L 79.816406 123.945312 C 80.605469 123.738281 81.203125 123.09375 81.351562 122.292969 L 81.488281 121.5625 L 81.621094 122.292969 C 81.769531 123.097656 82.367188 123.738281 83.15625 123.945312 L 83.929688 124.148438 L 83.15625 124.347656 C 82.367188 124.546875 81.765625 125.183594 81.613281 125.984375 L 81.488281 126.636719 L 81.363281 125.984375 C 81.207031 125.1875 80.605469 124.546875 79.820312 124.347656 Z M 79.046875 124.148438 " fill-opacity="1" fill-rule="nonzero"/><g clip-path="url(#955cea5c6d)"><path fill="#1a4359" d="M 84.929688 106.03125 L 83.5625 106.390625 C 82.164062 106.753906 81.101562 107.898438 80.839844 109.320312 L 80.601562 110.617188 L 80.363281 109.316406 C 80.097656 107.898438 79.039062 106.757812 77.640625 106.390625 L 76.273438 106.03125 L 77.644531 105.679688 C 79.039062 105.324219 80.105469 104.191406 80.378906 102.777344 L 80.601562 101.625 L 80.824219 102.777344 C 81.097656 104.191406 82.160156 105.324219 83.558594 105.679688 Z M 84.929688 106.03125 " fill-opacity="1" fill-rule="nonzero"/></g><g clip-path="url(#cafc031eea)"><path fill="#1a4359" d="M 125.757812 248.191406 C 117.886719 248.191406 111.933594 253.6875 106.363281 258.644531 C 100.792969 263.605469 95.609375 268.03125 89.78125 268.03125 C 83.953125 268.03125 75.003906 263.351562 67.847656 258.476562 C 60.691406 253.605469 55.210938 248.730469 55.210938 248.730469 L 52.398438 251.882812 C 52.398438 251.882812 58.054688 256.925781 65.464844 261.972656 C 72.875 267.019531 81.914062 272.261719 89.78125 272.261719 C 97.648438 272.261719 103.605469 266.765625 109.175781 261.804688 C 114.746094 256.84375 119.929688 252.421875 125.757812 252.421875 C 131.582031 252.421875 136.769531 256.84375 142.339844 261.804688 C 147.910156 266.765625 153.863281 272.261719 161.734375 272.261719 C 169.601562 272.261719 175.554688 266.765625 181.125 261.804688 C 186.695312 256.84375 191.882812 252.421875 197.710938 252.421875 C 203.539062 252.421875 208.722656 256.84375 214.292969 261.804688 C 219.863281 266.765625 225.820312 272.261719 233.6875 272.261719 C 241.554688 272.261719 247.511719 266.765625 253.082031 261.804688 C 258.652344 256.84375 263.835938 252.421875 269.664062 252.421875 C 275.527344 252.421875 280.707031 256.679688 286.269531 261.535156 C 291.832031 266.394531 297.730469 271.828125 305.523438 272.257812 C 321.96875 273.160156 333.238281 261.535156 343.101562 251.8125 L 340.132812 248.800781 C 330.230469 258.5625 320.097656 268.824219 305.757812 268.035156 C 299.875 267.710938 294.632812 263.226562 289.050781 258.351562 C 283.46875 253.476562 277.492188 248.191406 269.664062 248.191406 C 261.796875 248.191406 255.839844 253.6875 250.269531 258.644531 C 244.699219 263.605469 239.515625 268.03125 233.6875 268.03125 C 227.859375 268.03125 222.675781 263.605469 217.105469 258.644531 C 211.535156 253.6875 205.578125 248.191406 197.710938 248.191406 C 189.84375 248.191406 183.886719 253.6875 178.316406 258.644531 C 172.746094 263.605469 167.558594 268.03125 161.734375 268.03125 C 155.90625 268.03125 150.722656 263.605469 145.148438 258.644531 C 139.578125 253.6875 133.625 248.191406 125.757812 248.191406 Z M 125.757812 248.191406 " fill-opacity="1" fill-rule="nonzero"/></g></svg>